<?xml version="1.0" encoding="UTF-8" standalone="no"?>
<!DOCTYPE svg PUBLIC "-//W3C//DTD SVG 1.1//EN" "http://www.w3.org/Graphics/SVG/1.1/DTD/svg11.dtd">
<svg width="100%" height="100%" viewBox="0 0 2000 500" version="1.1" xmlns="http://www.w3.org/2000/svg" xmlns:xlink="http://www.w3.org/1999/xlink" xml:space="preserve" xmlns:serif="http://www.serif.com/" style="fill-rule:evenodd;clip-rule:evenodd;stroke-linejoin:round;stroke-miterlimit:2;">
    <g transform="matrix(1.333333,0,0,1.333333,21.333333,0.000006)">
        <g>
            <g>
                <g transform="matrix(1,0,0,1,0.851742,310.207891)">
                    <g>
                        <rect x="24.281" y="-253.578" width="58.578" height="253.578" style="fill:white;fill-rule:nonzero;"/>
                    </g>
                </g>
            </g>
            <g>
                <g transform="matrix(1,0,0,1,109.067027,310.207891)">
                    <g>
                        <path d="M141.078,-10C135.836,-7.852 130.062,-5.707 123.75,-3.562C117.445,-1.426 110.844,0.297 103.938,1.609C97.031,2.922 90.242,3.578 83.578,3.578C74.047,3.578 65.289,1.969 57.312,-1.25C49.344,-4.469 43.035,-9.766 38.391,-17.141C33.754,-24.523 31.438,-34.289 31.438,-46.438L31.438,-144.297L7.5,-144.297L7.5,-187.5L31.438,-187.5L31.438,-247.156L88.578,-247.156L88.578,-187.5L126.797,-187.5L126.797,-144.297L88.578,-144.297L88.578,-66.078C88.578,-59.879 90.125,-55.41 93.219,-52.672C96.312,-49.941 100.238,-48.578 105,-48.578C109.051,-48.578 113.395,-49.289 118.031,-50.719C122.676,-52.145 126.664,-53.691 130,-55.359L141.078,-10Z" style="fill:white;fill-rule:nonzero;"/>
                    </g>
                </g>
            </g>
            <g>
                <g transform="matrix(1,0,0,1,256.568464,310.207891)">
                    <g>
                        <path d="M132.141,3.578C117.859,3.578 105.359,0.539 94.641,-5.531C83.93,-11.602 75.477,-20.117 69.281,-31.078L69.281,0L19.641,0L19.641,-260.719L76.781,-260.719L76.781,-156.797C82.977,-167.742 91.254,-176.191 101.609,-182.141C111.961,-188.098 124.164,-191.078 138.219,-191.078C150.125,-191.078 161.016,-188.516 170.891,-183.391C180.773,-178.273 189.348,-171.254 196.609,-162.328C203.867,-153.398 209.523,-143.039 213.578,-131.25C217.629,-119.469 219.656,-106.672 219.656,-92.859C219.656,-79.285 217.453,-66.664 213.047,-55C208.641,-43.332 202.504,-33.094 194.641,-24.281C186.785,-15.477 177.562,-8.633 166.969,-3.75C156.375,1.133 144.766,3.578 132.141,3.578ZM116.078,-44.641C122.504,-44.641 128.516,-45.891 134.109,-48.391C139.703,-50.891 144.523,-54.281 148.578,-58.562C152.629,-62.852 155.723,-67.914 157.859,-73.75C160.004,-79.582 161.078,-85.953 161.078,-92.859C161.078,-101.672 159.289,-109.883 155.719,-117.5C152.145,-125.125 147.203,-131.195 140.891,-135.719C134.586,-140.238 127.27,-142.5 118.938,-142.5C112.977,-142.5 107.258,-141.07 101.781,-138.219C96.312,-135.363 91.43,-131.492 87.141,-126.609C82.859,-121.734 79.406,-116.195 76.781,-110L76.781,-70.719C78.688,-66.664 81.066,-63.031 83.922,-59.812C86.785,-56.602 89.941,-53.926 93.391,-51.781C96.848,-49.645 100.539,-47.922 104.469,-46.609C108.395,-45.297 112.266,-44.641 116.078,-44.641Z" style="fill:white;fill-rule:nonzero;"/>
                    </g>
                </g>
            </g>
            <g>
                <g transform="matrix(1,0,0,1,576.214424,310.207891)">
                    <g>
                        <path d="M8.578,-34.281L103.938,-147.859L13.578,-147.859L13.578,-187.5L163.938,-187.5L163.938,-153.219L69.641,-39.641L166.438,-39.641L166.438,0L8.578,0L8.578,-34.281Z" style="fill:white;fill-rule:nonzero;"/>
                    </g>
                </g>
            </g>
            <g>
                <g transform="matrix(1,0,0,1,755.144723,310.207891)">
                    <g>
                        <path d="M135.359,2.141C116.316,2.141 99.113,-1.488 83.75,-8.75C68.395,-16.008 55.18,-25.77 44.109,-38.031C33.035,-50.301 24.52,-64.113 18.562,-79.469C12.613,-94.82 9.641,-110.711 9.641,-127.141C9.641,-144.047 12.797,-160.117 19.109,-175.359C25.422,-190.598 34.227,-204.227 45.531,-216.25C56.844,-228.281 70.238,-237.75 85.719,-244.656C101.195,-251.562 118.102,-255.016 136.438,-255.016C155.25,-255.016 172.332,-251.379 187.688,-244.109C203.039,-236.848 216.254,-227.023 227.328,-214.641C238.398,-202.266 246.91,-188.395 252.859,-173.031C258.816,-157.676 261.797,-142.023 261.797,-126.078C261.797,-109.172 258.695,-93.098 252.5,-77.859C246.312,-62.617 237.504,-48.984 226.078,-36.953C214.648,-24.93 201.254,-15.41 185.891,-8.391C170.535,-1.367 153.691,2.141 135.359,2.141ZM69.281,-126.438C69.281,-116.676 70.707,-107.207 73.562,-98.031C76.426,-88.863 80.656,-80.707 86.25,-73.562C91.844,-66.426 98.805,-60.711 107.141,-56.422C115.473,-52.141 125,-50 135.719,-50C146.906,-50 156.664,-52.203 165,-56.609C173.332,-61.016 180.238,-66.906 185.719,-74.281C191.195,-81.664 195.305,-89.941 198.047,-99.109C200.785,-108.273 202.156,-117.617 202.156,-127.141C202.156,-136.91 200.723,-146.316 197.859,-155.359C195.004,-164.41 190.719,-172.566 185,-179.828C179.289,-187.086 172.27,-192.738 163.938,-196.781C155.602,-200.832 146.195,-202.859 135.719,-202.859C124.531,-202.859 114.828,-200.711 106.609,-196.422C98.398,-192.141 91.492,-186.367 85.891,-179.109C80.297,-171.848 76.129,-163.633 73.391,-154.469C70.648,-145.301 69.281,-135.957 69.281,-126.438Z" style="fill:white;fill-rule:nonzero;"/>
                    </g>
                </g>
            </g>
            <g>
                <g transform="matrix(1,0,0,1,1028.718756,310.207891)">
                    <g>
                        <path d="M200.359,0L143.219,0L143.219,-105.359C143.219,-117.742 140.895,-126.734 136.25,-132.328C131.613,-137.922 125.484,-140.719 117.859,-140.719C112.617,-140.719 107.258,-139.285 101.781,-136.422C96.312,-133.566 91.375,-129.641 86.969,-124.641C82.562,-119.641 79.164,-113.926 76.781,-107.5L76.781,0L19.641,0L19.641,-187.5L71.078,-187.5L71.078,-156.078C75.836,-163.461 81.785,-169.77 88.922,-175C96.066,-180.238 104.281,-184.227 113.562,-186.969C122.852,-189.707 132.977,-191.078 143.938,-191.078C156.082,-191.078 165.906,-188.875 173.406,-184.469C180.906,-180.062 186.617,-174.285 190.547,-167.141C194.473,-160.004 197.086,-152.328 198.391,-144.109C199.703,-135.898 200.359,-127.863 200.359,-120L200.359,0Z" style="fill:white;fill-rule:nonzero;"/>
                    </g>
                </g>
            </g>
            <g>
                <g transform="matrix(1,0,0,1,1251.220889,310.207891)">
                    <g>
                        <path d="M109.297,3.578C93.336,3.578 79.164,1.02 66.781,-4.094C54.406,-9.219 43.867,-16.188 35.172,-25C26.484,-33.812 19.879,-43.988 15.359,-55.531C10.836,-67.082 8.578,-79.172 8.578,-91.797C8.578,-109.891 12.562,-126.375 20.531,-141.25C28.508,-156.133 40,-168.16 55,-177.328C70,-186.492 88.098,-191.078 109.297,-191.078C130.484,-191.078 148.516,-186.551 163.391,-177.5C178.273,-168.457 189.645,-156.613 197.5,-141.969C205.363,-127.32 209.297,-111.43 209.297,-94.297C209.297,-90.961 209.113,-87.688 208.75,-84.469C208.395,-81.25 208.098,-78.453 207.859,-76.078L69.281,-76.078C70,-67.742 72.32,-60.719 76.25,-55C80.176,-49.289 85.234,-44.945 91.422,-41.969C97.617,-38.988 104.172,-37.5 111.078,-37.5C119.648,-37.5 127.688,-39.52 135.188,-43.562C142.688,-47.613 147.863,-53.094 150.719,-60L199.297,-46.438C194.535,-36.664 187.805,-28.031 179.109,-20.531C170.422,-13.031 160.18,-7.133 148.391,-2.844C136.609,1.438 123.578,3.578 109.297,3.578ZM67.859,-111.078L149.297,-111.078C148.336,-118.93 146.07,-125.773 142.5,-131.609C138.926,-137.441 134.164,-141.961 128.219,-145.172C122.27,-148.391 115.723,-150 108.578,-150C101.191,-150 94.582,-148.391 88.75,-145.172C82.914,-141.961 78.211,-137.441 74.641,-131.609C71.066,-125.773 68.805,-118.93 67.859,-111.078Z" style="fill:white;fill-rule:nonzero;"/>
                    </g>
                </g>
            </g>
        </g>
        <g transform="matrix(1.979233,0,0,2.305469,420.831023,-95.722045)">
            <rect x="40.15" y="62.986" width="29.446" height="25.065" style="fill:rgb(255,170,6);"/>
        </g>
    </g>
    <g transform="matrix(1.333333,0,0,1.333333,0,0.000006)">
        <g transform="matrix(1,0,0,1,516,129)">
            <g>
                <g>
                    <rect x="0.297" y="0.41" width="58.281" height="185.543" style="fill:white;fill-rule:nonzero;"/>
                </g>
            </g>
        </g>
    </g>
</svg>
