<svg xmlns="http://www.w3.org/2000/svg" xmlns:xlink="http://www.w3.org/1999/xlink" width="157" zoomAndPan="magnify" viewBox="0 0 117.75 34.499999" height="46" preserveAspectRatio="xMidYMid meet" version="1.0"><defs><g/><clipPath id="adb6ed60f2"><path d="M 74.851562 19.28125 L 81.035156 19.28125 L 81.035156 21.136719 L 74.851562 21.136719 Z M 74.851562 19.28125 " clip-rule="nonzero"/></clipPath><clipPath id="c5c7112676"><path d="M 74.503906 19.785156 L 80.691406 19.785156 L 80.691406 21.515625 L 74.503906 21.515625 Z M 74.503906 19.785156 " clip-rule="nonzero"/></clipPath><clipPath id="36fd7ee1cf"><path d="M 74.074219 19.660156 L 80.261719 19.660156 L 80.261719 21.515625 L 74.074219 21.515625 Z M 74.074219 19.660156 " clip-rule="nonzero"/></clipPath><clipPath id="ac023e3211"><path d="M 74.503906 9.246094 L 80.691406 9.246094 L 80.691406 11.101562 L 74.503906 11.101562 Z M 74.503906 9.246094 " clip-rule="nonzero"/></clipPath><clipPath id="7ddf26bbc5"><path d="M 74.851562 9.050781 L 81.035156 9.050781 L 81.035156 10.78125 L 74.851562 10.78125 Z M 74.851562 9.050781 " clip-rule="nonzero"/></clipPath><clipPath id="33fa2bd7d9"><path d="M 74.503906 9.371094 L 80.691406 9.371094 L 80.691406 11.101562 L 74.503906 11.101562 Z M 74.503906 9.371094 " clip-rule="nonzero"/></clipPath><clipPath id="f2db8cc6aa"><path d="M 71.808594 9.246094 L 76 9.246094 L 76 21.3125 L 71.808594 21.3125 Z M 71.808594 9.246094 " clip-rule="nonzero"/></clipPath><clipPath id="a19d8ec86b"><path d="M 79 9.246094 L 83.367188 9.246094 L 83.367188 21.3125 L 79 21.3125 Z M 79 9.246094 " clip-rule="nonzero"/></clipPath><clipPath id="c456f32fa5"><path d="M 0.71875 1.480469 L 19.019531 1.480469 L 19.019531 33.433594 L 0.71875 33.433594 Z M 0.71875 1.480469 " clip-rule="nonzero"/></clipPath><clipPath id="269ae580b4"><path d="M 0.71875 17.457031 L 19.019531 1.480469 L 19.019531 33.433594 Z M 0.71875 17.457031 " clip-rule="nonzero"/></clipPath><clipPath id="370ce56d3a"><path d="M 7.097656 5.941406 L 20.289062 5.941406 L 20.289062 28.972656 L 7.097656 28.972656 Z M 7.097656 5.941406 " clip-rule="nonzero"/></clipPath><clipPath id="56a2c57953"><path d="M 7.097656 17.457031 L 20.289062 5.941406 L 20.289062 28.972656 Z M 7.097656 17.457031 " clip-rule="nonzero"/></clipPath></defs><g clip-path="url(#adb6ed60f2)"><path fill="#f9c053" d="M 79.773438 20.511719 C 79.757812 20.453125 79.699219 20.40625 79.628906 20.40625 C 79.613281 20.40625 79.59375 20.410156 79.578125 20.417969 L 78.90625 19.507812 C 78.929688 19.484375 78.941406 19.453125 78.941406 19.417969 C 78.941406 19.34375 78.875 19.28125 78.796875 19.28125 C 78.714844 19.28125 78.648438 19.34375 78.648438 19.417969 C 78.648438 19.445312 78.660156 19.472656 78.671875 19.492188 L 77.875 20.289062 C 77.855469 20.277344 77.828125 20.269531 77.804688 20.269531 C 77.722656 20.269531 77.65625 20.332031 77.65625 20.40625 C 77.65625 20.425781 77.660156 20.4375 77.664062 20.453125 L 77.011719 20.859375 C 76.984375 20.835938 76.949219 20.824219 76.914062 20.824219 C 76.886719 20.824219 76.863281 20.828125 76.84375 20.839844 L 75.964844 19.941406 C 75.980469 19.921875 75.988281 19.894531 75.988281 19.867188 C 75.988281 19.792969 75.921875 19.730469 75.84375 19.730469 C 75.761719 19.730469 75.695312 19.792969 75.695312 19.867188 C 75.695312 19.894531 75.703125 19.917969 75.71875 19.9375 L 75.203125 20.425781 C 75.179688 20.414062 75.152344 20.40625 75.125 20.40625 C 75.058594 20.40625 75 20.453125 74.984375 20.511719 L 74.851562 20.511719 L 74.851562 20.578125 L 74.984375 20.578125 C 75 20.640625 75.058594 20.683594 75.125 20.683594 C 75.207031 20.683594 75.273438 20.621094 75.273438 20.546875 C 75.273438 20.519531 75.265625 20.496094 75.25 20.476562 L 75.769531 19.988281 C 75.789062 20 75.816406 20.007812 75.84375 20.007812 C 75.867188 20.007812 75.890625 20 75.914062 19.988281 L 76.789062 20.886719 C 76.777344 20.90625 76.765625 20.933594 76.765625 20.960938 C 76.765625 21.039062 76.832031 21.097656 76.914062 21.097656 C 76.992188 21.097656 77.058594 21.039062 77.058594 20.960938 C 77.058594 20.945312 77.054688 20.929688 77.050781 20.914062 L 77.703125 20.507812 C 77.730469 20.53125 77.765625 20.546875 77.804688 20.546875 C 77.882812 20.546875 77.949219 20.484375 77.949219 20.40625 C 77.949219 20.378906 77.941406 20.355469 77.925781 20.335938 L 78.722656 19.539062 C 78.746094 19.550781 78.769531 19.558594 78.796875 19.558594 C 78.8125 19.558594 78.832031 19.554688 78.847656 19.546875 L 79.519531 20.457031 C 79.5 20.480469 79.484375 20.511719 79.484375 20.546875 C 79.484375 20.621094 79.550781 20.683594 79.628906 20.683594 C 79.699219 20.683594 79.757812 20.640625 79.773438 20.578125 L 81.035156 20.578125 L 81.035156 20.511719 Z M 79.773438 20.511719 " fill-opacity="1" fill-rule="nonzero"/></g><g clip-path="url(#c5c7112676)"><path fill="#f9c053" d="M 79.425781 20.410156 C 79.410156 20.46875 79.355469 20.511719 79.285156 20.511719 C 79.265625 20.511719 79.25 20.511719 79.234375 20.503906 L 78.558594 21.410156 C 78.582031 21.4375 78.597656 21.46875 78.597656 21.503906 C 78.597656 21.578125 78.53125 21.640625 78.449219 21.640625 C 78.371094 21.640625 78.304688 21.578125 78.304688 21.503906 C 78.304688 21.476562 78.3125 21.449219 78.328125 21.429688 L 77.53125 20.632812 C 77.507812 20.644531 77.484375 20.652344 77.457031 20.652344 C 77.378906 20.652344 77.3125 20.589844 77.3125 20.511719 C 77.3125 20.496094 77.316406 20.484375 77.320312 20.46875 L 76.667969 20.0625 C 76.640625 20.085938 76.605469 20.097656 76.566406 20.097656 C 76.542969 20.097656 76.519531 20.09375 76.496094 20.082031 L 75.621094 20.976562 C 75.632812 21 75.644531 21.027344 75.644531 21.054688 C 75.644531 21.128906 75.578125 21.191406 75.496094 21.191406 C 75.417969 21.191406 75.351562 21.128906 75.351562 21.054688 C 75.351562 21.027344 75.359375 21.003906 75.371094 20.984375 L 74.855469 20.492188 C 74.835938 20.507812 74.808594 20.511719 74.78125 20.511719 C 74.714844 20.511719 74.65625 20.46875 74.640625 20.410156 L 74.503906 20.410156 L 74.503906 20.34375 L 74.640625 20.34375 C 74.65625 20.28125 74.714844 20.238281 74.78125 20.238281 C 74.863281 20.238281 74.925781 20.300781 74.925781 20.375 C 74.925781 20.402344 74.917969 20.425781 74.90625 20.445312 L 75.421875 20.933594 C 75.445312 20.921875 75.46875 20.914062 75.496094 20.914062 C 75.523438 20.914062 75.546875 20.921875 75.566406 20.933594 L 76.445312 20.035156 C 76.429688 20.015625 76.421875 19.988281 76.421875 19.960938 C 76.421875 19.882812 76.488281 19.824219 76.566406 19.824219 C 76.648438 19.824219 76.714844 19.882812 76.714844 19.960938 C 76.714844 19.976562 76.710938 19.992188 76.707031 20.003906 L 77.359375 20.414062 C 77.386719 20.390625 77.417969 20.375 77.457031 20.375 C 77.539062 20.375 77.601562 20.4375 77.601562 20.511719 C 77.601562 20.539062 77.59375 20.566406 77.582031 20.585938 L 78.378906 21.382812 C 78.398438 21.371094 78.425781 21.363281 78.449219 21.363281 C 78.46875 21.363281 78.484375 21.367188 78.503906 21.375 L 79.175781 20.464844 C 79.152344 20.441406 79.140625 20.410156 79.140625 20.375 C 79.140625 20.300781 79.203125 20.238281 79.285156 20.238281 C 79.355469 20.238281 79.410156 20.28125 79.425781 20.34375 L 80.691406 20.34375 L 80.691406 20.410156 Z M 79.425781 20.410156 " fill-opacity="1" fill-rule="nonzero"/></g><g clip-path="url(#36fd7ee1cf)"><path fill="#f9c053" d="M 78.996094 20.890625 C 78.980469 20.828125 78.921875 20.785156 78.855469 20.785156 C 78.835938 20.785156 78.820312 20.789062 78.804688 20.792969 L 78.128906 19.886719 C 78.152344 19.863281 78.164062 19.832031 78.164062 19.796875 C 78.164062 19.71875 78.101562 19.660156 78.019531 19.660156 C 77.941406 19.660156 77.875 19.71875 77.875 19.796875 C 77.875 19.824219 77.882812 19.847656 77.898438 19.871094 L 77.097656 20.664062 C 77.078125 20.652344 77.054688 20.648438 77.027344 20.648438 C 76.945312 20.648438 76.882812 20.707031 76.882812 20.785156 C 76.882812 20.800781 76.886719 20.816406 76.890625 20.828125 L 76.234375 21.238281 C 76.210938 21.214844 76.175781 21.199219 76.136719 21.199219 C 76.113281 21.199219 76.089844 21.207031 76.066406 21.21875 L 75.1875 20.320312 C 75.203125 20.296875 75.210938 20.273438 75.210938 20.246094 C 75.210938 20.167969 75.148438 20.105469 75.066406 20.105469 C 74.988281 20.105469 74.921875 20.167969 74.921875 20.246094 C 74.921875 20.269531 74.929688 20.292969 74.941406 20.316406 L 74.425781 20.804688 C 74.402344 20.792969 74.378906 20.785156 74.351562 20.785156 C 74.28125 20.785156 74.226562 20.828125 74.210938 20.890625 L 74.074219 20.890625 L 74.074219 20.957031 L 74.210938 20.957031 C 74.226562 21.015625 74.28125 21.058594 74.351562 21.058594 C 74.433594 21.058594 74.496094 21 74.496094 20.921875 C 74.496094 20.898438 74.488281 20.871094 74.476562 20.851562 L 74.992188 20.363281 C 75.015625 20.375 75.039062 20.382812 75.066406 20.382812 C 75.09375 20.382812 75.117188 20.375 75.136719 20.367188 L 76.015625 21.261719 C 76 21.285156 75.992188 21.308594 75.992188 21.335938 C 75.992188 21.414062 76.058594 21.476562 76.136719 21.476562 C 76.21875 21.476562 76.28125 21.414062 76.28125 21.335938 C 76.28125 21.320312 76.28125 21.304688 76.273438 21.292969 L 76.929688 20.886719 C 76.953125 20.910156 76.988281 20.921875 77.027344 20.921875 C 77.109375 20.921875 77.171875 20.859375 77.171875 20.785156 C 77.171875 20.757812 77.164062 20.730469 77.152344 20.710938 L 77.949219 19.917969 C 77.96875 19.925781 77.992188 19.933594 78.019531 19.933594 C 78.039062 19.933594 78.054688 19.929688 78.070312 19.925781 L 78.746094 20.832031 C 78.722656 20.855469 78.710938 20.886719 78.710938 20.921875 C 78.710938 21 78.773438 21.058594 78.855469 21.058594 C 78.921875 21.058594 78.980469 21.015625 78.996094 20.957031 L 80.261719 20.957031 L 80.261719 20.890625 Z M 78.996094 20.890625 " fill-opacity="1" fill-rule="nonzero"/></g><g clip-path="url(#ac023e3211)"><path fill="#f9c053" d="M 79.425781 10.476562 C 79.410156 10.417969 79.355469 10.375 79.285156 10.375 C 79.265625 10.375 79.25 10.378906 79.234375 10.382812 L 78.558594 9.476562 C 78.582031 9.453125 78.597656 9.417969 78.597656 9.386719 C 78.597656 9.308594 78.53125 9.246094 78.449219 9.246094 C 78.371094 9.246094 78.304688 9.308594 78.304688 9.386719 C 78.304688 9.414062 78.3125 9.4375 78.328125 9.457031 L 77.53125 10.253906 C 77.507812 10.242188 77.484375 10.234375 77.457031 10.234375 C 77.378906 10.234375 77.3125 10.296875 77.3125 10.375 C 77.3125 10.390625 77.316406 10.40625 77.320312 10.417969 L 76.667969 10.824219 C 76.640625 10.804688 76.605469 10.789062 76.566406 10.789062 C 76.542969 10.789062 76.519531 10.796875 76.496094 10.804688 L 75.621094 9.910156 C 75.632812 9.886719 75.644531 9.863281 75.644531 9.832031 C 75.644531 9.757812 75.578125 9.695312 75.496094 9.695312 C 75.417969 9.695312 75.351562 9.757812 75.351562 9.832031 C 75.351562 9.859375 75.359375 9.882812 75.371094 9.90625 L 74.855469 10.394531 C 74.835938 10.382812 74.808594 10.375 74.78125 10.375 C 74.714844 10.375 74.65625 10.417969 74.640625 10.476562 L 74.503906 10.476562 L 74.503906 10.546875 L 74.640625 10.546875 C 74.65625 10.605469 74.714844 10.648438 74.78125 10.648438 C 74.863281 10.648438 74.925781 10.585938 74.925781 10.511719 C 74.925781 10.484375 74.917969 10.460938 74.90625 10.441406 L 75.421875 9.953125 C 75.445312 9.964844 75.46875 9.972656 75.496094 9.972656 C 75.523438 9.972656 75.546875 9.964844 75.566406 9.953125 L 76.445312 10.851562 C 76.429688 10.875 76.421875 10.898438 76.421875 10.925781 C 76.421875 11.003906 76.488281 11.066406 76.566406 11.066406 C 76.648438 11.066406 76.714844 11.003906 76.714844 10.925781 C 76.714844 10.910156 76.710938 10.894531 76.707031 10.882812 L 77.359375 10.476562 C 77.386719 10.496094 77.417969 10.511719 77.457031 10.511719 C 77.539062 10.511719 77.601562 10.449219 77.601562 10.375 C 77.601562 10.347656 77.59375 10.320312 77.582031 10.300781 L 78.378906 9.503906 C 78.398438 9.515625 78.425781 9.523438 78.449219 9.523438 C 78.46875 9.523438 78.484375 9.519531 78.503906 9.515625 L 79.175781 10.421875 C 79.152344 10.445312 79.140625 10.476562 79.140625 10.511719 C 79.140625 10.585938 79.203125 10.648438 79.285156 10.648438 C 79.355469 10.648438 79.410156 10.605469 79.425781 10.546875 L 80.691406 10.546875 L 80.691406 10.476562 Z M 79.425781 10.476562 " fill-opacity="1" fill-rule="nonzero"/></g><g clip-path="url(#7ddf26bbc5)"><path fill="#f9c053" d="M 79.773438 9.675781 C 79.757812 9.734375 79.699219 9.78125 79.628906 9.78125 C 79.613281 9.78125 79.59375 9.777344 79.578125 9.769531 L 78.90625 10.679688 C 78.929688 10.703125 78.941406 10.734375 78.941406 10.769531 C 78.941406 10.84375 78.875 10.90625 78.796875 10.90625 C 78.714844 10.90625 78.648438 10.84375 78.648438 10.769531 C 78.648438 10.742188 78.660156 10.714844 78.671875 10.695312 L 77.875 9.898438 C 77.855469 9.910156 77.828125 9.917969 77.804688 9.917969 C 77.722656 9.917969 77.65625 9.855469 77.65625 9.78125 C 77.65625 9.765625 77.660156 9.75 77.664062 9.734375 L 77.011719 9.328125 C 76.984375 9.351562 76.949219 9.363281 76.914062 9.363281 C 76.886719 9.363281 76.863281 9.359375 76.84375 9.347656 L 75.964844 10.246094 C 75.980469 10.265625 75.988281 10.292969 75.988281 10.320312 C 75.988281 10.394531 75.921875 10.457031 75.84375 10.457031 C 75.761719 10.457031 75.695312 10.394531 75.695312 10.320312 C 75.695312 10.292969 75.703125 10.269531 75.71875 10.25 L 75.203125 9.761719 C 75.179688 9.773438 75.152344 9.78125 75.125 9.78125 C 75.058594 9.78125 75 9.734375 74.984375 9.675781 L 74.851562 9.675781 L 74.851562 9.609375 L 74.984375 9.609375 C 75 9.546875 75.058594 9.503906 75.125 9.503906 C 75.207031 9.503906 75.273438 9.566406 75.273438 9.640625 C 75.273438 9.667969 75.265625 9.691406 75.25 9.710938 L 75.769531 10.203125 C 75.789062 10.1875 75.816406 10.183594 75.84375 10.183594 C 75.867188 10.183594 75.890625 10.1875 75.914062 10.199219 L 76.789062 9.300781 C 76.777344 9.28125 76.765625 9.253906 76.765625 9.226562 C 76.765625 9.152344 76.832031 9.089844 76.914062 9.089844 C 76.992188 9.089844 77.058594 9.152344 77.058594 9.226562 C 77.058594 9.242188 77.054688 9.257812 77.050781 9.273438 L 77.703125 9.679688 C 77.730469 9.65625 77.765625 9.640625 77.804688 9.640625 C 77.882812 9.640625 77.949219 9.703125 77.949219 9.78125 C 77.949219 9.808594 77.941406 9.832031 77.925781 9.855469 L 78.722656 10.648438 C 78.746094 10.636719 78.769531 10.628906 78.796875 10.628906 C 78.8125 10.628906 78.832031 10.632812 78.847656 10.640625 L 79.519531 9.730469 C 79.5 9.707031 79.484375 9.675781 79.484375 9.640625 C 79.484375 9.566406 79.550781 9.503906 79.628906 9.503906 C 79.699219 9.503906 79.757812 9.546875 79.773438 9.609375 L 81.035156 9.609375 L 81.035156 9.675781 Z M 79.773438 9.675781 " fill-opacity="1" fill-rule="nonzero"/></g><g clip-path="url(#33fa2bd7d9)"><path fill="#f9c053" d="M 79.425781 10 C 79.410156 10.058594 79.355469 10.101562 79.285156 10.101562 C 79.265625 10.101562 79.25 10.097656 79.234375 10.09375 L 78.558594 11 C 78.582031 11.023438 78.597656 11.054688 78.597656 11.089844 C 78.597656 11.167969 78.53125 11.230469 78.449219 11.230469 C 78.371094 11.230469 78.304688 11.167969 78.304688 11.089844 C 78.304688 11.0625 78.3125 11.039062 78.328125 11.015625 L 77.53125 10.222656 C 77.507812 10.234375 77.484375 10.242188 77.457031 10.242188 C 77.378906 10.242188 77.3125 10.179688 77.3125 10.101562 C 77.3125 10.085938 77.316406 10.070312 77.320312 10.058594 L 76.667969 9.652344 C 76.640625 9.671875 76.605469 9.6875 76.566406 9.6875 C 76.542969 9.6875 76.519531 9.679688 76.496094 9.671875 L 75.621094 10.566406 C 75.632812 10.589844 75.644531 10.613281 75.644531 10.640625 C 75.644531 10.71875 75.578125 10.78125 75.496094 10.78125 C 75.417969 10.78125 75.351562 10.71875 75.351562 10.640625 C 75.351562 10.617188 75.359375 10.59375 75.371094 10.570312 L 74.855469 10.082031 C 74.835938 10.09375 74.808594 10.101562 74.78125 10.101562 C 74.714844 10.101562 74.65625 10.058594 74.640625 10 L 74.503906 10 L 74.503906 9.929688 L 74.640625 9.929688 C 74.65625 9.871094 74.714844 9.828125 74.78125 9.828125 C 74.863281 9.828125 74.925781 9.890625 74.925781 9.964844 C 74.925781 9.992188 74.917969 10.015625 74.90625 10.035156 L 75.421875 10.523438 C 75.445312 10.511719 75.46875 10.503906 75.496094 10.503906 C 75.523438 10.503906 75.546875 10.511719 75.566406 10.523438 L 76.445312 9.625 C 76.429688 9.601562 76.421875 9.578125 76.421875 9.550781 C 76.421875 9.472656 76.488281 9.410156 76.566406 9.410156 C 76.648438 9.410156 76.714844 9.472656 76.714844 9.550781 C 76.714844 9.566406 76.710938 9.582031 76.707031 9.59375 L 77.359375 10 C 77.386719 9.980469 77.417969 9.964844 77.457031 9.964844 C 77.539062 9.964844 77.601562 10.027344 77.601562 10.101562 C 77.601562 10.128906 77.59375 10.15625 77.582031 10.175781 L 78.378906 10.972656 C 78.398438 10.960938 78.425781 10.953125 78.449219 10.953125 C 78.46875 10.953125 78.484375 10.957031 78.503906 10.960938 L 79.175781 10.054688 C 79.152344 10.03125 79.140625 10 79.140625 9.964844 C 79.140625 9.886719 79.203125 9.828125 79.285156 9.828125 C 79.355469 9.828125 79.410156 9.871094 79.425781 9.929688 L 80.691406 9.929688 L 80.691406 10 Z M 79.425781 10 " fill-opacity="1" fill-rule="nonzero"/></g><g fill="#231f20" fill-opacity="1"><g transform="translate(22.419145, 20.803536)"><g><path d="M 1.421875 0 L 1.421875 -11.25 L 3.796875 -11.25 L 3.796875 0 Z M 1.421875 0 "/></g></g></g><g fill="#231f20" fill-opacity="1"><g transform="translate(29.652341, 20.803536)"><g><path d="M 5.765625 0 L 3.375 0 L 3.375 -9.265625 L 0.3125 -9.265625 L 0.3125 -11.25 L 8.8125 -11.25 L 8.8125 -9.265625 L 5.765625 -9.265625 Z M 5.765625 0 "/></g></g></g><g fill="#231f20" fill-opacity="1"><g transform="translate(40.7938, 20.803536)"><g><path d="M 1.421875 -11.25 L 4.921875 -11.25 C 6.421875 -11.25 7.550781 -11.035156 8.3125 -10.609375 C 9.082031 -10.191406 9.46875 -9.457031 9.46875 -8.40625 C 9.46875 -7.976562 9.398438 -7.59375 9.265625 -7.25 C 9.128906 -6.90625 8.929688 -6.625 8.671875 -6.40625 C 8.421875 -6.1875 8.113281 -6.039062 7.75 -5.96875 L 7.75 -5.890625 C 8.125 -5.816406 8.460938 -5.6875 8.765625 -5.5 C 9.066406 -5.3125 9.304688 -5.039062 9.484375 -4.6875 C 9.671875 -4.332031 9.765625 -3.859375 9.765625 -3.265625 C 9.765625 -2.578125 9.597656 -1.988281 9.265625 -1.5 C 8.929688 -1.019531 8.453125 -0.648438 7.828125 -0.390625 C 7.210938 -0.128906 6.476562 0 5.625 0 L 1.421875 0 Z M 3.796875 -6.796875 L 5.1875 -6.796875 C 5.882812 -6.796875 6.363281 -6.90625 6.625 -7.125 C 6.894531 -7.34375 7.03125 -7.664062 7.03125 -8.09375 C 7.03125 -8.519531 6.867188 -8.828125 6.546875 -9.015625 C 6.234375 -9.203125 5.738281 -9.296875 5.0625 -9.296875 L 3.796875 -9.296875 Z M 3.796875 -4.90625 L 3.796875 -1.96875 L 5.359375 -1.96875 C 6.078125 -1.96875 6.578125 -2.101562 6.859375 -2.375 C 7.140625 -2.65625 7.28125 -3.03125 7.28125 -3.5 C 7.28125 -3.78125 7.21875 -4.023438 7.09375 -4.234375 C 6.96875 -4.441406 6.757812 -4.601562 6.46875 -4.71875 C 6.1875 -4.84375 5.789062 -4.90625 5.28125 -4.90625 Z M 3.796875 -4.90625 "/></g></g></g><g fill="#231f20" fill-opacity="1"><g transform="translate(53.397011, 20.803536)"><g><path d="M 1.421875 0 L 1.421875 -11.25 L 3.796875 -11.25 L 3.796875 0 Z M 1.421875 0 "/></g></g></g><g fill="#231f20" fill-opacity="1"><g transform="translate(60.630206, 20.803536)"><g><path d="M 8.75 0 L 0.375 0 L 0.375 -1.546875 L 5.78125 -9.28125 L 0.53125 -9.28125 L 0.53125 -11.25 L 8.609375 -11.25 L 8.609375 -9.71875 L 3.21875 -1.96875 L 8.75 -1.96875 Z M 8.75 0 "/></g></g></g><g fill="#231f20" fill-opacity="1"><g transform="translate(71.774804, 20.803536)"><g/></g></g><g fill="#231f20" fill-opacity="1"><g transform="translate(77.884758, 20.803536)"><g/></g></g><g fill="#1f889f" fill-opacity="1"><g transform="translate(83.99811, 20.803536)"><g><path d="M 11.40625 0 L 8.375 0 L 3.46875 -8.515625 L 3.40625 -8.515625 C 3.425781 -8.160156 3.441406 -7.800781 3.453125 -7.4375 C 3.472656 -7.082031 3.488281 -6.722656 3.5 -6.359375 C 3.519531 -6.003906 3.535156 -5.648438 3.546875 -5.296875 L 3.546875 0 L 1.421875 0 L 1.421875 -11.25 L 4.421875 -11.25 L 9.3125 -2.828125 L 9.375 -2.828125 C 9.363281 -3.171875 9.347656 -3.515625 9.328125 -3.859375 C 9.316406 -4.203125 9.300781 -4.546875 9.28125 -4.890625 C 9.269531 -5.234375 9.257812 -5.578125 9.25 -5.921875 L 9.25 -11.25 L 11.40625 -11.25 Z M 11.40625 0 "/></g></g></g><g fill="#1f889f" fill-opacity="1"><g transform="translate(98.824723, 20.803536)"><g><path d="M 7.890625 0 L 1.421875 0 L 1.421875 -11.25 L 7.890625 -11.25 L 7.890625 -9.296875 L 3.796875 -9.296875 L 3.796875 -6.828125 L 7.609375 -6.828125 L 7.609375 -4.875 L 3.796875 -4.875 L 3.796875 -1.96875 L 7.890625 -1.96875 Z M 7.890625 0 "/></g></g></g><g clip-path="url(#f2db8cc6aa)"><path fill="#1f889f" d="M 75.121094 10.585938 L 75.453125 10.585938 L 75.453125 9.246094 L 75.121094 9.246094 C 74.023438 9.246094 73.132812 10.148438 73.132812 11.257812 L 73.132812 13.605469 C 73.132812 13.816406 73.035156 14.011719 72.867188 14.140625 L 72.074219 14.742188 C 71.914062 14.863281 71.816406 15.050781 71.808594 15.25 C 71.800781 15.453125 71.882812 15.648438 72.03125 15.78125 L 72.910156 16.570312 C 73.050781 16.699219 73.132812 16.882812 73.132812 17.074219 L 73.132812 19.300781 C 73.132812 20.410156 74.023438 21.3125 75.121094 21.3125 L 75.453125 21.3125 L 75.453125 19.972656 L 75.121094 19.972656 C 74.753906 19.972656 74.457031 19.671875 74.457031 19.300781 L 74.457031 17.074219 C 74.457031 16.5 74.214844 15.953125 73.792969 15.570312 L 73.515625 15.324219 L 73.664062 15.210938 C 74.164062 14.832031 74.457031 14.238281 74.457031 13.605469 L 74.457031 11.257812 C 74.457031 10.886719 74.753906 10.585938 75.121094 10.585938 Z M 75.121094 10.585938 " fill-opacity="1" fill-rule="evenodd"/></g><g clip-path="url(#a19d8ec86b)"><path fill="#1f889f" d="M 80.097656 10.585938 L 79.769531 10.585938 L 79.769531 9.246094 L 80.097656 9.246094 C 81.195312 9.246094 82.085938 10.148438 82.085938 11.257812 L 82.085938 13.605469 C 82.085938 13.816406 82.183594 14.011719 82.351562 14.140625 L 83.148438 14.742188 C 83.308594 14.863281 83.402344 15.050781 83.410156 15.25 C 83.421875 15.453125 83.339844 15.648438 83.191406 15.78125 L 82.308594 16.570312 C 82.167969 16.699219 82.085938 16.882812 82.085938 17.074219 L 82.085938 19.300781 C 82.085938 20.410156 81.195312 21.3125 80.097656 21.3125 L 79.769531 21.3125 L 79.769531 19.972656 L 80.097656 19.972656 C 80.464844 19.972656 80.761719 19.671875 80.761719 19.300781 L 80.761719 17.074219 C 80.761719 16.5 81.003906 15.953125 81.429688 15.570312 L 81.703125 15.324219 L 81.558594 15.210938 C 81.054688 14.832031 80.761719 14.238281 80.761719 13.605469 L 80.761719 11.257812 C 80.761719 10.886719 80.464844 10.585938 80.097656 10.585938 Z M 80.097656 10.585938 " fill-opacity="1" fill-rule="evenodd"/></g><g clip-path="url(#c456f32fa5)"><g clip-path="url(#269ae580b4)"><path fill="#1f889f" d="M 0.71875 33.433594 L 0.71875 1.480469 L 19.019531 1.480469 L 19.019531 33.433594 Z M 0.71875 33.433594 " fill-opacity="1" fill-rule="nonzero"/></g></g><g clip-path="url(#370ce56d3a)"><g clip-path="url(#56a2c57953)"><path fill="#f9c053" d="M 7.097656 28.972656 L 7.097656 5.941406 L 20.289062 5.941406 L 20.289062 28.972656 Z M 7.097656 28.972656 " fill-opacity="1" fill-rule="nonzero"/></g></g><g fill="#231f20" fill-opacity="1"><g transform="translate(23.78928, 27.576382)"><g><path d="M 1.527344 0.046875 C 2.128906 0.046875 2.621094 -0.304688 2.78125 -0.855469 L 2.546875 -0.855469 C 2.402344 -0.433594 2.007812 -0.175781 1.53125 -0.175781 C 0.910156 -0.175781 0.460938 -0.625 0.460938 -1.277344 C 0.460938 -1.929688 0.910156 -2.378906 1.53125 -2.378906 C 2 -2.378906 2.378906 -2.128906 2.523438 -1.726562 L 2.757812 -1.726562 C 2.589844 -2.261719 2.113281 -2.601562 1.527344 -2.601562 C 0.777344 -2.601562 0.234375 -2.054688 0.234375 -1.277344 C 0.234375 -0.5 0.777344 0.046875 1.527344 0.046875 Z M 1.527344 0.046875 "/></g></g></g><g fill="#231f20" fill-opacity="1"><g transform="translate(27.454982, 27.576382)"><g><path d="M 0.375 0 L 0.585938 0 L 0.585938 -0.867188 C 0.585938 -1.441406 0.855469 -1.6875 1.261719 -1.6875 L 1.425781 -1.6875 L 1.425781 -1.886719 L 1.269531 -1.886719 C 0.917969 -1.886719 0.703125 -1.746094 0.578125 -1.460938 L 0.554688 -1.886719 L 0.375 -1.886719 Z M 0.375 0 "/></g></g></g><g fill="#231f20" fill-opacity="1"><g transform="translate(29.705465, 27.576382)"><g><path d="M 0.964844 0.0273438 C 1.300781 0.0273438 1.578125 -0.0976562 1.742188 -0.324219 L 1.765625 0 L 1.941406 0 L 1.941406 -1.226562 C 1.941406 -1.644531 1.617188 -1.933594 1.144531 -1.933594 C 0.742188 -1.933594 0.441406 -1.714844 0.351562 -1.363281 L 0.566406 -1.363281 C 0.640625 -1.589844 0.863281 -1.734375 1.148438 -1.734375 C 1.5 -1.734375 1.730469 -1.527344 1.730469 -1.214844 L 1.730469 -1.078125 L 0.898438 -1.078125 C 0.511719 -1.078125 0.253906 -0.867188 0.253906 -0.53125 C 0.253906 -0.1875 0.527344 0.0273438 0.964844 0.0273438 Z M 0.46875 -0.535156 C 0.46875 -0.75 0.644531 -0.894531 0.90625 -0.894531 L 1.734375 -0.894531 L 1.734375 -0.8125 C 1.734375 -0.433594 1.410156 -0.160156 0.972656 -0.160156 C 0.660156 -0.160156 0.46875 -0.304688 0.46875 -0.535156 Z M 0.46875 -0.535156 "/></g></g></g><g fill="#231f20" fill-opacity="1"><g transform="translate(32.648967, 27.576382)"><g><path d="M 0.558594 -2.105469 L 0.558594 -1.886719 L 0.128906 -1.886719 L 0.128906 -1.691406 L 0.558594 -1.691406 L 0.558594 0 L 0.769531 0 L 0.769531 -1.691406 L 1.464844 -1.691406 L 1.464844 -1.886719 L 0.769531 -1.886719 L 0.769531 -2.089844 C 0.769531 -2.410156 0.902344 -2.546875 1.207031 -2.546875 L 1.484375 -2.546875 L 1.484375 -2.746094 L 1.1875 -2.746094 C 0.769531 -2.746094 0.558594 -2.535156 0.558594 -2.105469 Z M 0.558594 -2.105469 "/></g></g></g><g fill="#231f20" fill-opacity="1"><g transform="translate(34.83744, 27.576382)"><g><path d="M 1.140625 0 L 1.414062 0 L 1.414062 -0.203125 L 1.148438 -0.203125 C 0.863281 -0.203125 0.738281 -0.351562 0.738281 -0.660156 L 0.738281 -1.691406 L 1.390625 -1.691406 L 1.390625 -1.886719 L 0.738281 -1.886719 L 0.738281 -2.347656 L 0.570312 -2.347656 L 0.550781 -2.0625 C 0.535156 -1.921875 0.496094 -1.886719 0.355469 -1.886719 L 0.113281 -1.886719 L 0.113281 -1.691406 L 0.523438 -1.691406 L 0.523438 -0.652344 C 0.523438 -0.226562 0.742188 0 1.140625 0 Z M 1.140625 0 "/></g></g></g><g fill="#231f20" fill-opacity="1"><g transform="translate(37.10981, 27.576382)"><g><path d="M 0.375 0 L 0.585938 0 L 0.585938 -1.886719 L 0.375 -1.886719 Z M 0.289062 -2.421875 C 0.289062 -2.3125 0.363281 -2.230469 0.480469 -2.230469 C 0.597656 -2.230469 0.675781 -2.3125 0.675781 -2.421875 C 0.675781 -2.527344 0.597656 -2.613281 0.480469 -2.613281 C 0.363281 -2.613281 0.289062 -2.527344 0.289062 -2.421875 Z M 0.289062 -2.421875 "/></g></g></g><g fill="#231f20" fill-opacity="1"><g transform="translate(38.740225, 27.576382)"><g><path d="M 0.375 0 L 0.585938 0 L 0.585938 -0.976562 C 0.585938 -1.425781 0.863281 -1.730469 1.261719 -1.730469 C 1.636719 -1.730469 1.871094 -1.457031 1.871094 -1.023438 L 1.871094 0 L 2.082031 0 L 2.082031 -1.042969 C 2.082031 -1.585938 1.78125 -1.933594 1.289062 -1.933594 C 0.984375 -1.933594 0.722656 -1.789062 0.574219 -1.519531 L 0.554688 -1.886719 L 0.375 -1.886719 Z M 0.375 0 "/></g></g></g><g fill="#231f20" fill-opacity="1"><g transform="translate(41.825977, 27.576382)"><g><path d="M 1.203125 0.777344 C 1.753906 0.777344 2.125 0.429688 2.125 -0.078125 L 2.125 -1.886719 L 1.949219 -1.886719 L 1.929688 -1.546875 C 1.761719 -1.789062 1.488281 -1.933594 1.15625 -1.933594 C 0.605469 -1.933594 0.210938 -1.53125 0.210938 -0.976562 C 0.210938 -0.421875 0.605469 -0.0234375 1.15625 -0.0234375 C 1.476562 -0.0234375 1.746094 -0.160156 1.914062 -0.390625 L 1.914062 -0.0820312 C 1.914062 0.320312 1.636719 0.578125 1.203125 0.578125 C 0.855469 0.578125 0.601562 0.414062 0.539062 0.148438 L 0.324219 0.148438 C 0.398438 0.53125 0.742188 0.777344 1.203125 0.777344 Z M 0.421875 -0.976562 C 0.421875 -1.417969 0.734375 -1.730469 1.179688 -1.730469 C 1.621094 -1.730469 1.929688 -1.417969 1.929688 -0.976562 C 1.929688 -0.535156 1.621094 -0.230469 1.179688 -0.230469 C 0.734375 -0.230469 0.421875 -0.535156 0.421875 -0.976562 Z M 0.421875 -0.976562 "/></g></g></g><g fill="#231f20" fill-opacity="1"><g transform="translate(44.995622, 27.576382)"><g/></g></g><g fill="#231f20" fill-opacity="1"><g transform="translate(46.640623, 27.576382)"><g><path d="M 0.414062 0 L 1.21875 0 C 2.03125 0 2.546875 -0.507812 2.546875 -1.277344 C 2.546875 -2.046875 2.03125 -2.554688 1.21875 -2.554688 L 0.414062 -2.554688 Z M 0.632812 -0.210938 L 0.632812 -2.339844 L 1.210938 -2.339844 C 1.894531 -2.339844 2.320312 -1.925781 2.320312 -1.277344 C 2.320312 -0.628906 1.898438 -0.210938 1.21875 -0.210938 Z M 0.632812 -0.210938 "/></g></g></g><g fill="#231f20" fill-opacity="1"><g transform="translate(50.087473, 27.576382)"><g><path d="M 0.375 0 L 0.585938 0 L 0.585938 -1.886719 L 0.375 -1.886719 Z M 0.289062 -2.421875 C 0.289062 -2.3125 0.363281 -2.230469 0.480469 -2.230469 C 0.597656 -2.230469 0.675781 -2.3125 0.675781 -2.421875 C 0.675781 -2.527344 0.597656 -2.613281 0.480469 -2.613281 C 0.363281 -2.613281 0.289062 -2.527344 0.289062 -2.421875 Z M 0.289062 -2.421875 "/></g></g></g><g fill="#231f20" fill-opacity="1"><g transform="translate(51.717889, 27.576382)"><g><path d="M 1.203125 0.777344 C 1.753906 0.777344 2.125 0.429688 2.125 -0.078125 L 2.125 -1.886719 L 1.949219 -1.886719 L 1.929688 -1.546875 C 1.761719 -1.789062 1.488281 -1.933594 1.15625 -1.933594 C 0.605469 -1.933594 0.210938 -1.53125 0.210938 -0.976562 C 0.210938 -0.421875 0.605469 -0.0234375 1.15625 -0.0234375 C 1.476562 -0.0234375 1.746094 -0.160156 1.914062 -0.390625 L 1.914062 -0.0820312 C 1.914062 0.320312 1.636719 0.578125 1.203125 0.578125 C 0.855469 0.578125 0.601562 0.414062 0.539062 0.148438 L 0.324219 0.148438 C 0.398438 0.53125 0.742188 0.777344 1.203125 0.777344 Z M 0.421875 -0.976562 C 0.421875 -1.417969 0.734375 -1.730469 1.179688 -1.730469 C 1.621094 -1.730469 1.929688 -1.417969 1.929688 -0.976562 C 1.929688 -0.535156 1.621094 -0.230469 1.179688 -0.230469 C 0.734375 -0.230469 0.421875 -0.535156 0.421875 -0.976562 Z M 0.421875 -0.976562 "/></g></g></g><g fill="#231f20" fill-opacity="1"><g transform="translate(54.887532, 27.576382)"><g><path d="M 0.375 0 L 0.585938 0 L 0.585938 -1.886719 L 0.375 -1.886719 Z M 0.289062 -2.421875 C 0.289062 -2.3125 0.363281 -2.230469 0.480469 -2.230469 C 0.597656 -2.230469 0.675781 -2.3125 0.675781 -2.421875 C 0.675781 -2.527344 0.597656 -2.613281 0.480469 -2.613281 C 0.363281 -2.613281 0.289062 -2.527344 0.289062 -2.421875 Z M 0.289062 -2.421875 "/></g></g></g><g fill="#231f20" fill-opacity="1"><g transform="translate(56.517947, 27.576382)"><g><path d="M 1.140625 0 L 1.414062 0 L 1.414062 -0.203125 L 1.148438 -0.203125 C 0.863281 -0.203125 0.738281 -0.351562 0.738281 -0.660156 L 0.738281 -1.691406 L 1.390625 -1.691406 L 1.390625 -1.886719 L 0.738281 -1.886719 L 0.738281 -2.347656 L 0.570312 -2.347656 L 0.550781 -2.0625 C 0.535156 -1.921875 0.496094 -1.886719 0.355469 -1.886719 L 0.113281 -1.886719 L 0.113281 -1.691406 L 0.523438 -1.691406 L 0.523438 -0.652344 C 0.523438 -0.226562 0.742188 0 1.140625 0 Z M 1.140625 0 "/></g></g></g><g fill="#231f20" fill-opacity="1"><g transform="translate(58.790317, 27.576382)"><g><path d="M 0.964844 0.0273438 C 1.300781 0.0273438 1.578125 -0.0976562 1.742188 -0.324219 L 1.765625 0 L 1.941406 0 L 1.941406 -1.226562 C 1.941406 -1.644531 1.617188 -1.933594 1.144531 -1.933594 C 0.742188 -1.933594 0.441406 -1.714844 0.351562 -1.363281 L 0.566406 -1.363281 C 0.640625 -1.589844 0.863281 -1.734375 1.148438 -1.734375 C 1.5 -1.734375 1.730469 -1.527344 1.730469 -1.214844 L 1.730469 -1.078125 L 0.898438 -1.078125 C 0.511719 -1.078125 0.253906 -0.867188 0.253906 -0.53125 C 0.253906 -0.1875 0.527344 0.0273438 0.964844 0.0273438 Z M 0.46875 -0.535156 C 0.46875 -0.75 0.644531 -0.894531 0.90625 -0.894531 L 1.734375 -0.894531 L 1.734375 -0.8125 C 1.734375 -0.433594 1.410156 -0.160156 0.972656 -0.160156 C 0.660156 -0.160156 0.46875 -0.304688 0.46875 -0.535156 Z M 0.46875 -0.535156 "/></g></g></g><g fill="#231f20" fill-opacity="1"><g transform="translate(61.733818, 27.576382)"><g><path d="M 0.375 0 L 0.585938 0 L 0.585938 -2.699219 L 0.375 -2.699219 Z M 0.375 0 "/></g></g></g><g fill="#231f20" fill-opacity="1"><g transform="translate(63.364235, 27.576382)"><g/></g></g><g fill="#231f20" fill-opacity="1"><g transform="translate(65.009237, 27.576382)"><g><path d="M 0.414062 0 L 1.421875 0 C 1.917969 0 2.230469 -0.265625 2.230469 -0.695312 C 2.230469 -1.007812 2.058594 -1.230469 1.761719 -1.316406 C 2.007812 -1.402344 2.15625 -1.613281 2.15625 -1.890625 C 2.15625 -2.292969 1.851562 -2.554688 1.382812 -2.554688 L 0.414062 -2.554688 Z M 0.632812 -0.207031 L 0.632812 -1.199219 L 1.402344 -1.199219 C 1.785156 -1.199219 2.003906 -1.019531 2.003906 -0.703125 C 2.003906 -0.394531 1.785156 -0.207031 1.414062 -0.207031 Z M 0.632812 -1.402344 L 0.632812 -2.34375 L 1.378906 -2.34375 C 1.726562 -2.34375 1.929688 -2.167969 1.929688 -1.875 C 1.929688 -1.578125 1.726562 -1.402344 1.375 -1.402344 Z M 0.632812 -1.402344 "/></g></g></g><g fill="#231f20" fill-opacity="1"><g transform="translate(68.142408, 27.576382)"><g><path d="M 0.375 0 L 0.585938 0 L 0.585938 -0.867188 C 0.585938 -1.441406 0.855469 -1.6875 1.261719 -1.6875 L 1.425781 -1.6875 L 1.425781 -1.886719 L 1.269531 -1.886719 C 0.917969 -1.886719 0.703125 -1.746094 0.578125 -1.460938 L 0.554688 -1.886719 L 0.375 -1.886719 Z M 0.375 0 "/></g></g></g><g fill="#231f20" fill-opacity="1"><g transform="translate(70.392891, 27.576382)"><g><path d="M 0.375 0 L 0.585938 0 L 0.585938 -1.886719 L 0.375 -1.886719 Z M 0.289062 -2.421875 C 0.289062 -2.3125 0.363281 -2.230469 0.480469 -2.230469 C 0.597656 -2.230469 0.675781 -2.3125 0.675781 -2.421875 C 0.675781 -2.527344 0.597656 -2.613281 0.480469 -2.613281 C 0.363281 -2.613281 0.289062 -2.527344 0.289062 -2.421875 Z M 0.289062 -2.421875 "/></g></g></g><g fill="#231f20" fill-opacity="1"><g transform="translate(72.023306, 27.576382)"><g><path d="M 0.375 0 L 0.585938 0 L 0.585938 -2.699219 L 0.375 -2.699219 Z M 0.375 0 "/></g></g></g><g fill="#231f20" fill-opacity="1"><g transform="translate(73.653721, 27.576382)"><g><path d="M 0.375 0 L 0.585938 0 L 0.585938 -2.699219 L 0.375 -2.699219 Z M 0.375 0 "/></g></g></g><g fill="#231f20" fill-opacity="1"><g transform="translate(75.284136, 27.576382)"><g><path d="M 0.375 0 L 0.585938 0 L 0.585938 -1.886719 L 0.375 -1.886719 Z M 0.289062 -2.421875 C 0.289062 -2.3125 0.363281 -2.230469 0.480469 -2.230469 C 0.597656 -2.230469 0.675781 -2.3125 0.675781 -2.421875 C 0.675781 -2.527344 0.597656 -2.613281 0.480469 -2.613281 C 0.363281 -2.613281 0.289062 -2.527344 0.289062 -2.421875 Z M 0.289062 -2.421875 "/></g></g></g><g fill="#231f20" fill-opacity="1"><g transform="translate(76.914552, 27.576382)"><g><path d="M 0.964844 0.0273438 C 1.300781 0.0273438 1.578125 -0.0976562 1.742188 -0.324219 L 1.765625 0 L 1.941406 0 L 1.941406 -1.226562 C 1.941406 -1.644531 1.617188 -1.933594 1.144531 -1.933594 C 0.742188 -1.933594 0.441406 -1.714844 0.351562 -1.363281 L 0.566406 -1.363281 C 0.640625 -1.589844 0.863281 -1.734375 1.148438 -1.734375 C 1.5 -1.734375 1.730469 -1.527344 1.730469 -1.214844 L 1.730469 -1.078125 L 0.898438 -1.078125 C 0.511719 -1.078125 0.253906 -0.867188 0.253906 -0.53125 C 0.253906 -0.1875 0.527344 0.0273438 0.964844 0.0273438 Z M 0.46875 -0.535156 C 0.46875 -0.75 0.644531 -0.894531 0.90625 -0.894531 L 1.734375 -0.894531 L 1.734375 -0.8125 C 1.734375 -0.433594 1.410156 -0.160156 0.972656 -0.160156 C 0.660156 -0.160156 0.46875 -0.304688 0.46875 -0.535156 Z M 0.46875 -0.535156 "/></g></g></g><g fill="#231f20" fill-opacity="1"><g transform="translate(79.858053, 27.576382)"><g><path d="M 0.375 0 L 0.585938 0 L 0.585938 -0.976562 C 0.585938 -1.425781 0.863281 -1.730469 1.261719 -1.730469 C 1.636719 -1.730469 1.871094 -1.457031 1.871094 -1.023438 L 1.871094 0 L 2.082031 0 L 2.082031 -1.042969 C 2.082031 -1.585938 1.78125 -1.933594 1.289062 -1.933594 C 0.984375 -1.933594 0.722656 -1.789062 0.574219 -1.519531 L 0.554688 -1.886719 L 0.375 -1.886719 Z M 0.375 0 "/></g></g></g><g fill="#231f20" fill-opacity="1"><g transform="translate(82.943805, 27.576382)"><g><path d="M 1.175781 0.046875 C 1.636719 0.046875 1.992188 -0.21875 2.121094 -0.660156 L 1.898438 -0.660156 C 1.789062 -0.351562 1.519531 -0.15625 1.175781 -0.15625 C 0.730469 -0.15625 0.421875 -0.476562 0.421875 -0.945312 C 0.421875 -1.40625 0.730469 -1.730469 1.175781 -1.730469 C 1.5 -1.730469 1.761719 -1.558594 1.886719 -1.257812 L 2.101562 -1.257812 C 1.992188 -1.667969 1.625 -1.933594 1.175781 -1.933594 C 0.609375 -1.933594 0.210938 -1.523438 0.210938 -0.945312 C 0.210938 -0.363281 0.609375 0.046875 1.175781 0.046875 Z M 1.175781 0.046875 "/></g></g></g><g fill="#231f20" fill-opacity="1"><g transform="translate(85.931074, 27.576382)"><g><path d="M 1.175781 0.046875 C 1.597656 0.046875 1.941406 -0.175781 2.085938 -0.535156 L 1.847656 -0.539062 C 1.726562 -0.296875 1.480469 -0.152344 1.175781 -0.152344 C 0.753906 -0.152344 0.464844 -0.429688 0.425781 -0.855469 L 2.140625 -0.855469 C 2.15625 -1.496094 1.773438 -1.933594 1.179688 -1.933594 C 0.605469 -1.933594 0.210938 -1.527344 0.210938 -0.945312 C 0.210938 -0.359375 0.601562 0.046875 1.175781 0.046875 Z M 0.425781 -1.042969 C 0.464844 -1.457031 0.757812 -1.734375 1.179688 -1.734375 C 1.589844 -1.734375 1.882812 -1.46875 1.933594 -1.042969 Z M 0.425781 -1.042969 "/></g></g></g></svg>