<svg xmlns="http://www.w3.org/2000/svg" xmlns:xlink="http://www.w3.org/1999/xlink" width="150" zoomAndPan="magnify" viewBox="0 0 112.5 37.5" height="50" preserveAspectRatio="xMidYMid meet" version="1.0"><defs><g/><clipPath id="362123fb6f"><path d="M 74.882812 20.414062 L 80.828125 20.414062 L 80.828125 22.644531 L 74.882812 22.644531 Z M 74.882812 20.414062 " clip-rule="nonzero"/></clipPath><clipPath id="5cf148d020"><path d="M 74.535156 20.792969 L 80.484375 20.792969 L 80.484375 22.777344 L 74.535156 22.777344 Z M 74.535156 20.792969 " clip-rule="nonzero"/></clipPath><clipPath id="ca6acb4bde"><path d="M 74.105469 20.792969 L 80.050781 20.792969 L 80.050781 23 L 74.105469 23 Z M 74.105469 20.792969 " clip-rule="nonzero"/></clipPath><clipPath id="12c136e2dc"><path d="M 74.535156 10.34375 L 80.484375 10.34375 L 80.484375 12.574219 L 74.535156 12.574219 Z M 74.535156 10.34375 " clip-rule="nonzero"/></clipPath><clipPath id="e69f5f8ef2"><path d="M 74.882812 10.019531 L 80.828125 10.019531 L 80.828125 12.007812 L 74.882812 12.007812 Z M 74.882812 10.019531 " clip-rule="nonzero"/></clipPath><clipPath id="77ab0d4b8e"><path d="M 74.535156 10.34375 L 80.484375 10.34375 L 80.484375 12.332031 L 74.535156 12.332031 Z M 74.535156 10.34375 " clip-rule="nonzero"/></clipPath><clipPath id="9a4099f816"><path d="M 71.828125 10.34375 L 76 10.34375 L 76 22.238281 L 71.828125 22.238281 Z M 71.828125 10.34375 " clip-rule="nonzero"/></clipPath><clipPath id="6150a37d70"><path d="M 80 10.34375 L 83.234375 10.34375 L 83.234375 22.238281 L 80 22.238281 Z M 80 10.34375 " clip-rule="nonzero"/></clipPath><clipPath id="bcddc9a60c"><path d="M 0.496094 2.546875 L 18.859375 2.546875 L 18.859375 34.609375 L 0.496094 34.609375 Z M 0.496094 2.546875 " clip-rule="nonzero"/></clipPath><clipPath id="e5c4b03f3c"><path d="M 0.496094 18.578125 L 18.859375 2.546875 L 18.859375 34.609375 Z M 0.496094 18.578125 " clip-rule="nonzero"/></clipPath><clipPath id="1e236e0617"><path d="M 6.894531 7.027344 L 20.128906 7.027344 L 20.128906 30.136719 L 6.894531 30.136719 Z M 6.894531 7.027344 " clip-rule="nonzero"/></clipPath><clipPath id="16fcda63e1"><path d="M 6.894531 18.582031 L 20.128906 7.027344 L 20.128906 30.136719 Z M 6.894531 18.582031 " clip-rule="nonzero"/></clipPath></defs><g clip-path="url(#362123fb6f)"><path fill="#f9c053" d="M 79.613281 21.894531 C 79.597656 21.820312 79.542969 21.769531 79.476562 21.769531 C 79.460938 21.769531 79.441406 21.773438 79.425781 21.777344 L 78.78125 20.6875 C 78.800781 20.660156 78.816406 20.621094 78.816406 20.582031 C 78.816406 20.488281 78.753906 20.414062 78.675781 20.414062 C 78.597656 20.414062 78.535156 20.488281 78.535156 20.582031 C 78.535156 20.613281 78.542969 20.644531 78.558594 20.667969 L 77.789062 21.625 C 77.769531 21.609375 77.746094 21.601562 77.722656 21.601562 C 77.644531 21.601562 77.582031 21.675781 77.582031 21.769531 C 77.582031 21.785156 77.585938 21.804688 77.589844 21.824219 L 76.960938 22.3125 C 76.9375 22.285156 76.902344 22.265625 76.867188 22.265625 C 76.839844 22.265625 76.820312 22.273438 76.796875 22.289062 L 75.953125 21.210938 C 75.96875 21.183594 75.976562 21.152344 75.976562 21.121094 C 75.976562 21.027344 75.914062 20.953125 75.835938 20.953125 C 75.761719 20.953125 75.699219 21.027344 75.699219 21.121094 C 75.699219 21.148438 75.703125 21.179688 75.71875 21.203125 L 75.222656 21.792969 C 75.199219 21.777344 75.175781 21.769531 75.148438 21.769531 C 75.085938 21.769531 75.03125 21.820312 75.015625 21.894531 L 74.882812 21.894531 L 74.882812 21.972656 L 75.015625 21.972656 C 75.03125 22.046875 75.085938 22.097656 75.148438 22.097656 C 75.226562 22.097656 75.289062 22.023438 75.289062 21.933594 C 75.289062 21.902344 75.28125 21.875 75.269531 21.847656 L 75.765625 21.261719 C 75.785156 21.277344 75.8125 21.285156 75.835938 21.285156 C 75.863281 21.285156 75.886719 21.277344 75.90625 21.265625 L 76.75 22.34375 C 76.734375 22.367188 76.726562 22.398438 76.726562 22.433594 C 76.726562 22.523438 76.789062 22.597656 76.867188 22.597656 C 76.941406 22.597656 77.007812 22.523438 77.007812 22.433594 C 77.007812 22.414062 77.003906 22.394531 76.996094 22.378906 L 77.625 21.890625 C 77.652344 21.917969 77.683594 21.933594 77.722656 21.933594 C 77.796875 21.933594 77.859375 21.859375 77.859375 21.769531 C 77.859375 21.734375 77.851562 21.703125 77.839844 21.679688 L 78.605469 20.722656 C 78.625 20.738281 78.648438 20.746094 78.675781 20.746094 C 78.691406 20.746094 78.710938 20.742188 78.726562 20.734375 L 79.371094 21.824219 C 79.351562 21.855469 79.335938 21.890625 79.335938 21.933594 C 79.335938 22.023438 79.398438 22.097656 79.476562 22.097656 C 79.542969 22.097656 79.597656 22.046875 79.613281 21.972656 L 80.828125 21.972656 L 80.828125 21.894531 Z M 79.613281 21.894531 " fill-opacity="1" fill-rule="nonzero"/></g><g clip-path="url(#5cf148d020)"><path fill="#f9c053" d="M 79.265625 21.300781 C 79.25 21.371094 79.195312 21.425781 79.128906 21.425781 C 79.113281 21.425781 79.097656 21.421875 79.082031 21.414062 L 78.433594 22.503906 C 78.457031 22.535156 78.46875 22.570312 78.46875 22.613281 C 78.46875 22.703125 78.40625 22.777344 78.328125 22.777344 C 78.25 22.777344 78.1875 22.703125 78.1875 22.613281 C 78.1875 22.582031 78.195312 22.550781 78.210938 22.523438 L 77.445312 21.570312 C 77.421875 21.582031 77.398438 21.589844 77.375 21.589844 C 77.296875 21.589844 77.234375 21.515625 77.234375 21.425781 C 77.234375 21.40625 77.238281 21.386719 77.242188 21.371094 L 76.613281 20.882812 C 76.589844 20.910156 76.554688 20.925781 76.519531 20.925781 C 76.496094 20.925781 76.472656 20.917969 76.453125 20.90625 L 75.609375 21.984375 C 75.621094 22.007812 75.632812 22.039062 75.632812 22.074219 C 75.632812 22.164062 75.570312 22.238281 75.492188 22.238281 C 75.414062 22.238281 75.351562 22.164062 75.351562 22.074219 C 75.351562 22.042969 75.359375 22.015625 75.371094 21.988281 L 74.875 21.402344 C 74.855469 21.417969 74.828125 21.425781 74.804688 21.425781 C 74.738281 21.425781 74.683594 21.371094 74.667969 21.300781 L 74.539062 21.300781 L 74.539062 21.21875 L 74.667969 21.21875 C 74.683594 21.148438 74.738281 21.09375 74.804688 21.09375 C 74.878906 21.09375 74.941406 21.167969 74.941406 21.257812 C 74.941406 21.289062 74.9375 21.320312 74.921875 21.34375 L 75.417969 21.933594 C 75.441406 21.917969 75.464844 21.910156 75.492188 21.910156 C 75.515625 21.910156 75.539062 21.914062 75.558594 21.929688 L 76.402344 20.851562 C 76.386719 20.824219 76.378906 20.792969 76.378906 20.761719 C 76.378906 20.667969 76.441406 20.59375 76.519531 20.59375 C 76.597656 20.59375 76.660156 20.667969 76.660156 20.761719 C 76.660156 20.78125 76.65625 20.796875 76.652344 20.816406 L 77.28125 21.304688 C 77.304688 21.277344 77.339844 21.257812 77.375 21.257812 C 77.453125 21.257812 77.515625 21.332031 77.515625 21.425781 C 77.515625 21.457031 77.507812 21.488281 77.492188 21.515625 L 78.257812 22.46875 C 78.28125 22.457031 78.304688 22.445312 78.328125 22.445312 C 78.347656 22.445312 78.363281 22.453125 78.378906 22.457031 L 79.023438 21.367188 C 79.003906 21.339844 78.992188 21.300781 78.992188 21.257812 C 78.992188 21.167969 79.054688 21.09375 79.128906 21.09375 C 79.195312 21.09375 79.25 21.148438 79.265625 21.21875 L 80.480469 21.21875 L 80.480469 21.300781 Z M 79.265625 21.300781 " fill-opacity="1" fill-rule="nonzero"/></g><g clip-path="url(#ca6acb4bde)"><path fill="#f9c053" d="M 78.835938 22.269531 C 78.820312 22.199219 78.765625 22.144531 78.699219 22.144531 C 78.679688 22.144531 78.664062 22.148438 78.648438 22.15625 L 78.003906 21.066406 C 78.023438 21.039062 78.035156 21 78.035156 20.957031 C 78.035156 20.867188 77.972656 20.792969 77.898438 20.792969 C 77.820312 20.792969 77.757812 20.867188 77.757812 20.957031 C 77.757812 20.992188 77.765625 21.019531 77.777344 21.046875 L 77.011719 22 C 76.992188 21.988281 76.96875 21.980469 76.941406 21.980469 C 76.867188 21.980469 76.804688 22.054688 76.804688 22.144531 C 76.804688 22.164062 76.804688 22.183594 76.8125 22.199219 L 76.183594 22.6875 C 76.15625 22.660156 76.125 22.644531 76.085938 22.644531 C 76.0625 22.644531 76.039062 22.652344 76.019531 22.664062 L 75.175781 21.585938 C 75.191406 21.5625 75.199219 21.53125 75.199219 21.496094 C 75.199219 21.40625 75.136719 21.332031 75.058594 21.332031 C 74.980469 21.332031 74.917969 21.40625 74.917969 21.496094 C 74.917969 21.527344 74.925781 21.558594 74.9375 21.582031 L 74.441406 22.167969 C 74.421875 22.15625 74.398438 22.144531 74.371094 22.144531 C 74.304688 22.144531 74.25 22.199219 74.234375 22.269531 L 74.105469 22.269531 L 74.105469 22.351562 L 74.234375 22.351562 C 74.25 22.421875 74.304688 22.476562 74.371094 22.476562 C 74.449219 22.476562 74.511719 22.402344 74.511719 22.3125 C 74.511719 22.28125 74.503906 22.25 74.492188 22.226562 L 74.988281 21.640625 C 75.007812 21.652344 75.03125 21.664062 75.058594 21.664062 C 75.082031 21.664062 75.105469 21.65625 75.125 21.640625 L 75.96875 22.71875 C 75.957031 22.746094 75.949219 22.777344 75.949219 22.808594 C 75.949219 22.902344 76.011719 22.976562 76.085938 22.976562 C 76.164062 22.976562 76.226562 22.902344 76.226562 22.808594 C 76.226562 22.792969 76.226562 22.773438 76.21875 22.757812 L 76.847656 22.265625 C 76.875 22.292969 76.90625 22.3125 76.941406 22.3125 C 77.019531 22.3125 77.082031 22.238281 77.082031 22.144531 C 77.082031 22.113281 77.074219 22.082031 77.0625 22.058594 L 77.828125 21.101562 C 77.847656 21.117188 77.871094 21.125 77.898438 21.125 C 77.914062 21.125 77.929688 21.121094 77.945312 21.113281 L 78.59375 22.203125 C 78.570312 22.230469 78.558594 22.269531 78.558594 22.3125 C 78.558594 22.402344 78.621094 22.476562 78.699219 22.476562 C 78.765625 22.476562 78.820312 22.421875 78.835938 22.351562 L 80.050781 22.351562 L 80.050781 22.269531 Z M 78.835938 22.269531 " fill-opacity="1" fill-rule="nonzero"/></g><g clip-path="url(#12c136e2dc)"><path fill="#f9c053" d="M 79.265625 11.824219 C 79.25 11.753906 79.195312 11.699219 79.128906 11.699219 C 79.113281 11.699219 79.097656 11.703125 79.082031 11.710938 L 78.433594 10.621094 C 78.457031 10.589844 78.46875 10.550781 78.46875 10.511719 C 78.46875 10.417969 78.40625 10.34375 78.328125 10.34375 C 78.25 10.34375 78.1875 10.417969 78.1875 10.511719 C 78.1875 10.542969 78.195312 10.574219 78.210938 10.601562 L 77.445312 11.554688 C 77.421875 11.539062 77.398438 11.53125 77.375 11.53125 C 77.296875 11.53125 77.234375 11.605469 77.234375 11.699219 C 77.234375 11.71875 77.238281 11.734375 77.242188 11.753906 L 76.613281 12.242188 C 76.589844 12.214844 76.554688 12.199219 76.519531 12.199219 C 76.496094 12.199219 76.472656 12.207031 76.453125 12.21875 L 75.609375 11.140625 C 75.621094 11.113281 75.632812 11.082031 75.632812 11.050781 C 75.632812 10.957031 75.570312 10.882812 75.492188 10.882812 C 75.414062 10.882812 75.351562 10.957031 75.351562 11.050781 C 75.351562 11.082031 75.359375 11.109375 75.371094 11.136719 L 74.875 11.722656 C 74.855469 11.707031 74.828125 11.699219 74.804688 11.699219 C 74.738281 11.699219 74.683594 11.753906 74.667969 11.824219 L 74.539062 11.824219 L 74.539062 11.90625 L 74.667969 11.90625 C 74.683594 11.976562 74.738281 12.03125 74.804688 12.03125 C 74.878906 12.03125 74.941406 11.957031 74.941406 11.863281 C 74.941406 11.832031 74.9375 11.804688 74.921875 11.78125 L 75.417969 11.191406 C 75.441406 11.207031 75.464844 11.214844 75.492188 11.214844 C 75.515625 11.214844 75.539062 11.207031 75.558594 11.195312 L 76.402344 12.273438 C 76.386719 12.300781 76.378906 12.328125 76.378906 12.363281 C 76.378906 12.453125 76.441406 12.527344 76.519531 12.527344 C 76.597656 12.527344 76.660156 12.453125 76.660156 12.363281 C 76.660156 12.34375 76.65625 12.324219 76.652344 12.308594 L 77.28125 11.820312 C 77.304688 11.847656 77.339844 11.863281 77.375 11.863281 C 77.453125 11.863281 77.515625 11.789062 77.515625 11.699219 C 77.515625 11.667969 77.507812 11.636719 77.492188 11.609375 L 78.257812 10.65625 C 78.28125 10.667969 78.304688 10.675781 78.328125 10.675781 C 78.347656 10.675781 78.363281 10.671875 78.378906 10.664062 L 79.023438 11.757812 C 79.003906 11.785156 78.992188 11.824219 78.992188 11.863281 C 78.992188 11.957031 79.054688 12.03125 79.128906 12.03125 C 79.195312 12.03125 79.25 11.976562 79.265625 11.90625 L 80.480469 11.90625 L 80.480469 11.824219 Z M 79.265625 11.824219 " fill-opacity="1" fill-rule="nonzero"/></g><g clip-path="url(#e69f5f8ef2)"><path fill="#f9c053" d="M 79.613281 10.527344 C 79.597656 10.601562 79.542969 10.65625 79.476562 10.65625 C 79.460938 10.65625 79.441406 10.648438 79.425781 10.644531 L 78.78125 11.734375 C 78.800781 11.761719 78.816406 11.800781 78.816406 11.84375 C 78.816406 11.933594 78.753906 12.007812 78.675781 12.007812 C 78.597656 12.007812 78.535156 11.933594 78.535156 11.84375 C 78.535156 11.808594 78.542969 11.777344 78.558594 11.753906 L 77.789062 10.796875 C 77.769531 10.8125 77.746094 10.820312 77.722656 10.820312 C 77.644531 10.820312 77.582031 10.746094 77.582031 10.65625 C 77.582031 10.636719 77.585938 10.617188 77.589844 10.601562 L 76.960938 10.113281 C 76.9375 10.136719 76.902344 10.15625 76.867188 10.15625 C 76.839844 10.15625 76.820312 10.148438 76.796875 10.136719 L 75.953125 11.210938 C 75.96875 11.238281 75.976562 11.269531 75.976562 11.304688 C 75.976562 11.394531 75.914062 11.46875 75.835938 11.46875 C 75.761719 11.46875 75.699219 11.394531 75.699219 11.304688 C 75.699219 11.273438 75.703125 11.242188 75.71875 11.21875 L 75.222656 10.628906 C 75.199219 10.644531 75.175781 10.65625 75.148438 10.65625 C 75.085938 10.65625 75.03125 10.601562 75.015625 10.527344 L 74.882812 10.527344 L 74.882812 10.449219 L 75.015625 10.449219 C 75.03125 10.375 75.085938 10.324219 75.148438 10.324219 C 75.226562 10.324219 75.289062 10.398438 75.289062 10.488281 C 75.289062 10.519531 75.28125 10.550781 75.269531 10.574219 L 75.765625 11.160156 C 75.785156 11.144531 75.8125 11.136719 75.835938 11.136719 C 75.863281 11.136719 75.886719 11.144531 75.90625 11.15625 L 76.75 10.082031 C 76.734375 10.054688 76.726562 10.023438 76.726562 9.988281 C 76.726562 9.898438 76.789062 9.824219 76.867188 9.824219 C 76.941406 9.824219 77.007812 9.898438 77.007812 9.988281 C 77.007812 10.007812 77.003906 10.027344 76.996094 10.042969 L 77.625 10.53125 C 77.652344 10.503906 77.683594 10.488281 77.722656 10.488281 C 77.796875 10.488281 77.859375 10.5625 77.859375 10.65625 C 77.859375 10.6875 77.851562 10.71875 77.839844 10.742188 L 78.605469 11.699219 C 78.625 11.683594 78.648438 11.675781 78.675781 11.675781 C 78.691406 11.675781 78.710938 11.679688 78.726562 11.6875 L 79.371094 10.597656 C 79.351562 10.566406 79.335938 10.53125 79.335938 10.488281 C 79.335938 10.398438 79.398438 10.324219 79.476562 10.324219 C 79.542969 10.324219 79.597656 10.375 79.613281 10.449219 L 80.828125 10.449219 L 80.828125 10.527344 Z M 79.613281 10.527344 " fill-opacity="1" fill-rule="nonzero"/></g><g clip-path="url(#77ab0d4b8e)"><path fill="#f9c053" d="M 79.265625 10.851562 C 79.25 10.925781 79.195312 10.976562 79.128906 10.976562 C 79.113281 10.976562 79.097656 10.972656 79.082031 10.96875 L 78.433594 12.058594 C 78.457031 12.085938 78.46875 12.125 78.46875 12.164062 C 78.46875 12.257812 78.40625 12.332031 78.328125 12.332031 C 78.25 12.332031 78.1875 12.257812 78.1875 12.164062 C 78.1875 12.132812 78.195312 12.101562 78.210938 12.078125 L 77.445312 11.121094 C 77.421875 11.136719 77.398438 11.144531 77.375 11.144531 C 77.296875 11.144531 77.234375 11.070312 77.234375 10.976562 C 77.234375 10.960938 77.238281 10.941406 77.242188 10.925781 L 76.613281 10.433594 C 76.589844 10.460938 76.554688 10.480469 76.519531 10.480469 C 76.496094 10.480469 76.472656 10.472656 76.453125 10.457031 L 75.609375 11.535156 C 75.621094 11.5625 75.632812 11.59375 75.632812 11.628906 C 75.632812 11.71875 75.570312 11.792969 75.492188 11.792969 C 75.414062 11.792969 75.351562 11.71875 75.351562 11.628906 C 75.351562 11.597656 75.359375 11.566406 75.371094 11.542969 L 74.875 10.953125 C 74.855469 10.96875 74.828125 10.976562 74.804688 10.976562 C 74.738281 10.976562 74.683594 10.925781 74.667969 10.851562 L 74.539062 10.851562 L 74.539062 10.773438 L 74.667969 10.773438 C 74.683594 10.699219 74.738281 10.648438 74.804688 10.648438 C 74.878906 10.648438 74.941406 10.722656 74.941406 10.8125 C 74.941406 10.84375 74.9375 10.871094 74.921875 10.898438 L 75.417969 11.484375 C 75.441406 11.46875 75.464844 11.460938 75.492188 11.460938 C 75.515625 11.460938 75.539062 11.46875 75.558594 11.480469 L 76.402344 10.402344 C 76.386719 10.378906 76.378906 10.347656 76.378906 10.3125 C 76.378906 10.222656 76.441406 10.148438 76.519531 10.148438 C 76.597656 10.148438 76.660156 10.222656 76.660156 10.3125 C 76.660156 10.332031 76.65625 10.351562 76.652344 10.367188 L 77.28125 10.855469 C 77.304688 10.828125 77.339844 10.8125 77.375 10.8125 C 77.453125 10.8125 77.515625 10.886719 77.515625 10.976562 C 77.515625 11.011719 77.507812 11.042969 77.492188 11.066406 L 78.257812 12.023438 C 78.28125 12.007812 78.304688 12 78.328125 12 C 78.347656 12 78.363281 12.003906 78.378906 12.011719 L 79.023438 10.921875 C 79.003906 10.890625 78.992188 10.855469 78.992188 10.8125 C 78.992188 10.722656 79.054688 10.648438 79.128906 10.648438 C 79.195312 10.648438 79.25 10.699219 79.265625 10.773438 L 80.480469 10.773438 L 80.480469 10.851562 Z M 79.265625 10.851562 " fill-opacity="1" fill-rule="nonzero"/></g><g fill="#ffffff" fill-opacity="1"><g transform="translate(22.262903, 21.441004)"><g><path d="M 1.421875 0 L 1.421875 -11.28125 L 3.8125 -11.28125 L 3.8125 0 Z M 1.421875 0 "/></g></g></g><g fill="#ffffff" fill-opacity="1"><g transform="translate(29.520686, 21.441004)"><g><path d="M 5.78125 0 L 3.375 0 L 3.375 -9.296875 L 0.3125 -9.296875 L 0.3125 -11.28125 L 8.84375 -11.28125 L 8.84375 -9.296875 L 5.78125 -9.296875 Z M 5.78125 0 "/></g></g></g><g fill="#ffffff" fill-opacity="1"><g transform="translate(40.69992, 21.441004)"><g><path d="M 1.421875 -11.28125 L 4.9375 -11.28125 C 6.4375 -11.28125 7.570312 -11.066406 8.34375 -10.640625 C 9.113281 -10.222656 9.5 -9.488281 9.5 -8.4375 C 9.5 -8.007812 9.429688 -7.617188 9.296875 -7.265625 C 9.160156 -6.921875 8.960938 -6.640625 8.703125 -6.421875 C 8.453125 -6.203125 8.140625 -6.054688 7.765625 -5.984375 L 7.765625 -5.921875 C 8.140625 -5.835938 8.476562 -5.703125 8.78125 -5.515625 C 9.082031 -5.328125 9.328125 -5.050781 9.515625 -4.6875 C 9.703125 -4.332031 9.796875 -3.863281 9.796875 -3.28125 C 9.796875 -2.59375 9.625 -2.003906 9.28125 -1.515625 C 8.945312 -1.023438 8.46875 -0.648438 7.84375 -0.390625 C 7.226562 -0.128906 6.492188 0 5.640625 0 L 1.421875 0 Z M 3.8125 -6.8125 L 5.203125 -6.8125 C 5.898438 -6.8125 6.378906 -6.921875 6.640625 -7.140625 C 6.910156 -7.359375 7.046875 -7.679688 7.046875 -8.109375 C 7.046875 -8.546875 6.882812 -8.859375 6.5625 -9.046875 C 6.25 -9.234375 5.753906 -9.328125 5.078125 -9.328125 L 3.8125 -9.328125 Z M 3.8125 -4.921875 L 3.8125 -1.984375 L 5.375 -1.984375 C 6.09375 -1.984375 6.59375 -2.117188 6.875 -2.390625 C 7.15625 -2.671875 7.296875 -3.046875 7.296875 -3.515625 C 7.296875 -3.796875 7.234375 -4.039062 7.109375 -4.25 C 6.992188 -4.457031 6.789062 -4.617188 6.5 -4.734375 C 6.207031 -4.859375 5.804688 -4.921875 5.296875 -4.921875 Z M 3.8125 -4.921875 "/></g></g></g><g fill="#ffffff" fill-opacity="1"><g transform="translate(53.345838, 21.441004)"><g><path d="M 1.421875 0 L 1.421875 -11.28125 L 3.8125 -11.28125 L 3.8125 0 Z M 1.421875 0 "/></g></g></g><g fill="#ffffff" fill-opacity="1"><g transform="translate(60.603622, 21.441004)"><g><path d="M 8.78125 0 L 0.375 0 L 0.375 -1.546875 L 5.796875 -9.3125 L 0.53125 -9.3125 L 0.53125 -11.28125 L 8.625 -11.28125 L 8.625 -9.75 L 3.234375 -1.984375 L 8.78125 -1.984375 Z M 8.78125 0 "/></g></g></g><g fill="#231f20" fill-opacity="1"><g transform="translate(71.793327, 21.441004)"><g/></g></g><g fill="#231f20" fill-opacity="1"><g transform="translate(77.924079, 21.441004)"><g/></g></g><g fill="#1f889f" fill-opacity="1"><g transform="translate(84.059774, 21.441004)"><g><path d="M 11.4375 0 L 8.390625 0 L 3.484375 -8.546875 L 3.40625 -8.546875 C 3.425781 -8.179688 3.441406 -7.816406 3.453125 -7.453125 C 3.472656 -7.097656 3.488281 -6.742188 3.5 -6.390625 C 3.519531 -6.035156 3.539062 -5.675781 3.5625 -5.3125 L 3.5625 0 L 1.421875 0 L 1.421875 -11.28125 L 4.4375 -11.28125 L 9.34375 -2.828125 L 9.390625 -2.828125 C 9.378906 -3.179688 9.363281 -3.53125 9.34375 -3.875 C 9.332031 -4.21875 9.320312 -4.5625 9.3125 -4.90625 C 9.300781 -5.25 9.289062 -5.59375 9.28125 -5.9375 L 9.28125 -11.28125 L 11.4375 -11.28125 Z M 11.4375 0 "/></g></g></g><g fill="#1f889f" fill-opacity="1"><g transform="translate(98.936602, 21.441004)"><g><path d="M 7.921875 0 L 1.421875 0 L 1.421875 -11.28125 L 7.921875 -11.28125 L 7.921875 -9.328125 L 3.8125 -9.328125 L 3.8125 -6.84375 L 7.640625 -6.84375 L 7.640625 -4.890625 L 3.8125 -4.890625 L 3.8125 -1.984375 L 7.921875 -1.984375 Z M 7.921875 0 "/></g></g></g><g clip-path="url(#9a4099f816)"><path fill="#1f889f" d="M 75.28125 11.667969 L 75.625 11.667969 L 75.625 10.347656 L 75.28125 10.347656 C 74.136719 10.347656 73.210938 11.234375 73.210938 12.328125 L 73.210938 14.640625 C 73.210938 14.847656 73.105469 15.046875 72.933594 15.167969 L 72.105469 15.765625 C 71.9375 15.882812 71.835938 16.066406 71.828125 16.265625 C 71.820312 16.464844 71.90625 16.65625 72.058594 16.785156 L 72.976562 17.566406 C 73.125 17.691406 73.210938 17.871094 73.210938 18.058594 L 73.210938 20.257812 C 73.210938 21.351562 74.136719 22.238281 75.28125 22.238281 L 75.625 22.238281 L 75.625 20.917969 L 75.28125 20.917969 C 74.898438 20.917969 74.589844 20.621094 74.589844 20.257812 L 74.589844 18.058594 C 74.589844 17.492188 74.335938 16.953125 73.894531 16.578125 L 73.609375 16.335938 L 73.761719 16.226562 C 74.28125 15.851562 74.589844 15.265625 74.589844 14.640625 L 74.589844 12.328125 C 74.589844 11.964844 74.898438 11.667969 75.28125 11.667969 Z M 75.28125 11.667969 " fill-opacity="1" fill-rule="evenodd"/></g><g clip-path="url(#6150a37d70)"><path fill="#1f889f" d="M 80.375 11.667969 L 80.03125 11.667969 L 80.03125 10.347656 L 80.375 10.347656 C 81.519531 10.347656 82.445312 11.234375 82.445312 12.328125 L 82.445312 14.640625 C 82.445312 14.847656 82.550781 15.046875 82.722656 15.167969 L 83.550781 15.765625 C 83.71875 15.882812 83.820312 16.066406 83.828125 16.265625 C 83.835938 16.464844 83.75 16.65625 83.597656 16.785156 L 82.679688 17.566406 C 82.53125 17.691406 82.445312 17.871094 82.445312 18.058594 L 82.445312 20.257812 C 82.445312 21.351562 81.519531 22.238281 80.375 22.238281 L 80.03125 22.238281 L 80.03125 20.917969 L 80.375 20.917969 C 80.757812 20.917969 81.066406 20.621094 81.066406 20.257812 L 81.066406 18.058594 C 81.066406 17.492188 81.320312 16.953125 81.761719 16.578125 L 82.046875 16.335938 L 81.894531 16.226562 C 81.375 15.851562 81.066406 15.265625 81.066406 14.640625 L 81.066406 12.328125 C 81.066406 11.964844 80.757812 11.667969 80.375 11.667969 Z M 80.375 11.667969 " fill-opacity="1" fill-rule="evenodd"/></g><g clip-path="url(#bcddc9a60c)"><g clip-path="url(#e5c4b03f3c)"><path fill="#1f889f" d="M 0.496094 34.609375 L 0.496094 2.546875 L 18.859375 2.546875 L 18.859375 34.609375 Z M 0.496094 34.609375 " fill-opacity="1" fill-rule="nonzero"/></g></g><g clip-path="url(#1e236e0617)"><g clip-path="url(#16fcda63e1)"><path fill="#f9c053" d="M 6.894531 30.136719 L 6.894531 7.027344 L 20.128906 7.027344 L 20.128906 30.136719 Z M 6.894531 30.136719 " fill-opacity="1" fill-rule="nonzero"/></g></g><g fill="#ffffff" fill-opacity="1"><g transform="translate(23.644745, 28.737891)"><g><path d="M 1.535156 0.046875 C 2.136719 0.046875 2.632812 -0.308594 2.789062 -0.859375 L 2.554688 -0.859375 C 2.410156 -0.4375 2.015625 -0.175781 1.539062 -0.175781 C 0.910156 -0.175781 0.460938 -0.625 0.460938 -1.28125 C 0.460938 -1.9375 0.910156 -2.386719 1.539062 -2.386719 C 2.003906 -2.386719 2.386719 -2.136719 2.53125 -1.730469 L 2.765625 -1.730469 C 2.597656 -2.269531 2.121094 -2.609375 1.535156 -2.609375 C 0.78125 -2.609375 0.234375 -2.0625 0.234375 -1.28125 C 0.234375 -0.5 0.78125 0.046875 1.535156 0.046875 Z M 1.535156 0.046875 "/></g></g></g><g fill="#ffffff" fill-opacity="1"><g transform="translate(27.323142, 28.737891)"><g><path d="M 0.378906 0 L 0.589844 0 L 0.589844 -0.871094 C 0.589844 -1.445312 0.859375 -1.695312 1.265625 -1.695312 L 1.429688 -1.695312 L 1.429688 -1.890625 L 1.273438 -1.890625 C 0.921875 -1.890625 0.707031 -1.753906 0.578125 -1.46875 L 0.554688 -1.890625 L 0.378906 -1.890625 Z M 0.378906 0 "/></g></g></g><g fill="#ffffff" fill-opacity="1"><g transform="translate(29.581419, 28.737891)"><g><path d="M 0.96875 0.0273438 C 1.308594 0.0273438 1.585938 -0.0976562 1.75 -0.324219 L 1.769531 0 L 1.945312 0 L 1.945312 -1.230469 C 1.945312 -1.652344 1.621094 -1.941406 1.148438 -1.941406 C 0.746094 -1.941406 0.441406 -1.71875 0.351562 -1.367188 L 0.566406 -1.367188 C 0.644531 -1.597656 0.867188 -1.742188 1.152344 -1.742188 C 1.503906 -1.742188 1.734375 -1.535156 1.734375 -1.21875 L 1.734375 -1.082031 L 0.898438 -1.082031 C 0.511719 -1.082031 0.257812 -0.871094 0.257812 -0.535156 C 0.257812 -0.1875 0.53125 0.0273438 0.96875 0.0273438 Z M 0.46875 -0.539062 C 0.46875 -0.753906 0.648438 -0.898438 0.90625 -0.898438 L 1.738281 -0.898438 L 1.738281 -0.816406 C 1.738281 -0.4375 1.417969 -0.160156 0.976562 -0.160156 C 0.664062 -0.160156 0.46875 -0.308594 0.46875 -0.539062 Z M 0.46875 -0.539062 "/></g></g></g><g fill="#ffffff" fill-opacity="1"><g transform="translate(32.535115, 28.737891)"><g><path d="M 0.558594 -2.113281 L 0.558594 -1.890625 L 0.128906 -1.890625 L 0.128906 -1.699219 L 0.558594 -1.699219 L 0.558594 0 L 0.773438 0 L 0.773438 -1.699219 L 1.472656 -1.699219 L 1.472656 -1.890625 L 0.773438 -1.890625 L 0.773438 -2.097656 C 0.773438 -2.417969 0.902344 -2.554688 1.210938 -2.554688 L 1.488281 -2.554688 L 1.488281 -2.757812 L 1.191406 -2.757812 C 0.773438 -2.757812 0.558594 -2.542969 0.558594 -2.113281 Z M 0.558594 -2.113281 "/></g></g></g><g fill="#ffffff" fill-opacity="1"><g transform="translate(34.731167, 28.737891)"><g><path d="M 1.144531 0 L 1.421875 0 L 1.421875 -0.203125 L 1.152344 -0.203125 C 0.867188 -0.203125 0.738281 -0.351562 0.738281 -0.664062 L 0.738281 -1.699219 L 1.394531 -1.699219 L 1.394531 -1.890625 L 0.738281 -1.890625 L 0.738281 -2.355469 L 0.570312 -2.355469 L 0.550781 -2.066406 C 0.539062 -1.929688 0.496094 -1.890625 0.355469 -1.890625 L 0.113281 -1.890625 L 0.113281 -1.699219 L 0.527344 -1.699219 L 0.527344 -0.65625 C 0.527344 -0.226562 0.742188 0 1.144531 0 Z M 1.144531 0 "/></g></g></g><g fill="#ffffff" fill-opacity="1"><g transform="translate(37.011407, 28.737891)"><g><path d="M 0.378906 0 L 0.589844 0 L 0.589844 -1.890625 L 0.378906 -1.890625 Z M 0.289062 -2.429688 C 0.289062 -2.320312 0.367188 -2.234375 0.484375 -2.234375 C 0.601562 -2.234375 0.675781 -2.320312 0.675781 -2.429688 C 0.675781 -2.535156 0.601562 -2.621094 0.484375 -2.621094 C 0.367188 -2.621094 0.289062 -2.535156 0.289062 -2.429688 Z M 0.289062 -2.429688 "/></g></g></g><g fill="#ffffff" fill-opacity="1"><g transform="translate(38.647468, 28.737891)"><g><path d="M 0.378906 0 L 0.589844 0 L 0.589844 -0.980469 C 0.589844 -1.429688 0.867188 -1.734375 1.265625 -1.734375 C 1.644531 -1.734375 1.878906 -1.464844 1.878906 -1.027344 L 1.878906 0 L 2.089844 0 L 2.089844 -1.046875 C 2.089844 -1.59375 1.785156 -1.941406 1.292969 -1.941406 C 0.988281 -1.941406 0.726562 -1.796875 0.574219 -1.527344 L 0.554688 -1.890625 L 0.378906 -1.890625 Z M 0.378906 0 "/></g></g></g><g fill="#ffffff" fill-opacity="1"><g transform="translate(41.743907, 28.737891)"><g><path d="M 1.207031 0.78125 C 1.761719 0.78125 2.132812 0.433594 2.132812 -0.078125 L 2.132812 -1.890625 L 1.953125 -1.890625 L 1.9375 -1.550781 C 1.769531 -1.792969 1.492188 -1.941406 1.160156 -1.941406 C 0.609375 -1.941406 0.210938 -1.539062 0.210938 -0.980469 C 0.210938 -0.425781 0.609375 -0.0234375 1.160156 -0.0234375 C 1.480469 -0.0234375 1.753906 -0.160156 1.921875 -0.390625 L 1.921875 -0.0859375 C 1.921875 0.320312 1.644531 0.578125 1.207031 0.578125 C 0.859375 0.578125 0.605469 0.414062 0.542969 0.148438 L 0.324219 0.148438 C 0.398438 0.535156 0.742188 0.78125 1.207031 0.78125 Z M 0.425781 -0.980469 C 0.425781 -1.421875 0.734375 -1.734375 1.183594 -1.734375 C 1.625 -1.734375 1.9375 -1.421875 1.9375 -0.980469 C 1.9375 -0.539062 1.625 -0.230469 1.183594 -0.230469 C 0.734375 -0.230469 0.425781 -0.539062 0.425781 -0.980469 Z M 0.425781 -0.980469 "/></g></g></g><g fill="#ffffff" fill-opacity="1"><g transform="translate(44.924529, 28.737891)"><g/></g></g><g fill="#ffffff" fill-opacity="1"><g transform="translate(46.575228, 28.737891)"><g><path d="M 0.414062 0 L 1.222656 0 C 2.039062 0 2.554688 -0.507812 2.554688 -1.28125 C 2.554688 -2.054688 2.039062 -2.5625 1.222656 -2.5625 L 0.414062 -2.5625 Z M 0.636719 -0.210938 L 0.636719 -2.351562 L 1.214844 -2.351562 C 1.898438 -2.351562 2.328125 -1.933594 2.328125 -1.28125 C 2.328125 -0.628906 1.902344 -0.210938 1.222656 -0.210938 Z M 0.636719 -0.210938 "/></g></g></g><g fill="#ffffff" fill-opacity="1"><g transform="translate(50.034015, 28.737891)"><g><path d="M 0.378906 0 L 0.589844 0 L 0.589844 -1.890625 L 0.378906 -1.890625 Z M 0.289062 -2.429688 C 0.289062 -2.320312 0.367188 -2.234375 0.484375 -2.234375 C 0.601562 -2.234375 0.675781 -2.320312 0.675781 -2.429688 C 0.675781 -2.535156 0.601562 -2.621094 0.484375 -2.621094 C 0.367188 -2.621094 0.289062 -2.535156 0.289062 -2.429688 Z M 0.289062 -2.429688 "/></g></g></g><g fill="#ffffff" fill-opacity="1"><g transform="translate(51.670077, 28.737891)"><g><path d="M 1.207031 0.78125 C 1.761719 0.78125 2.132812 0.433594 2.132812 -0.078125 L 2.132812 -1.890625 L 1.953125 -1.890625 L 1.9375 -1.550781 C 1.769531 -1.792969 1.492188 -1.941406 1.160156 -1.941406 C 0.609375 -1.941406 0.210938 -1.539062 0.210938 -0.980469 C 0.210938 -0.425781 0.609375 -0.0234375 1.160156 -0.0234375 C 1.480469 -0.0234375 1.753906 -0.160156 1.921875 -0.390625 L 1.921875 -0.0859375 C 1.921875 0.320312 1.644531 0.578125 1.207031 0.578125 C 0.859375 0.578125 0.605469 0.414062 0.542969 0.148438 L 0.324219 0.148438 C 0.398438 0.535156 0.742188 0.78125 1.207031 0.78125 Z M 0.425781 -0.980469 C 0.425781 -1.421875 0.734375 -1.734375 1.183594 -1.734375 C 1.625 -1.734375 1.9375 -1.421875 1.9375 -0.980469 C 1.9375 -0.539062 1.625 -0.230469 1.183594 -0.230469 C 0.734375 -0.230469 0.425781 -0.539062 0.425781 -0.980469 Z M 0.425781 -0.980469 "/></g></g></g><g fill="#ffffff" fill-opacity="1"><g transform="translate(54.850698, 28.737891)"><g><path d="M 0.378906 0 L 0.589844 0 L 0.589844 -1.890625 L 0.378906 -1.890625 Z M 0.289062 -2.429688 C 0.289062 -2.320312 0.367188 -2.234375 0.484375 -2.234375 C 0.601562 -2.234375 0.675781 -2.320312 0.675781 -2.429688 C 0.675781 -2.535156 0.601562 -2.621094 0.484375 -2.621094 C 0.367188 -2.621094 0.289062 -2.535156 0.289062 -2.429688 Z M 0.289062 -2.429688 "/></g></g></g><g fill="#ffffff" fill-opacity="1"><g transform="translate(56.486759, 28.737891)"><g><path d="M 1.144531 0 L 1.421875 0 L 1.421875 -0.203125 L 1.152344 -0.203125 C 0.867188 -0.203125 0.738281 -0.351562 0.738281 -0.664062 L 0.738281 -1.699219 L 1.394531 -1.699219 L 1.394531 -1.890625 L 0.738281 -1.890625 L 0.738281 -2.355469 L 0.570312 -2.355469 L 0.550781 -2.066406 C 0.539062 -1.929688 0.496094 -1.890625 0.355469 -1.890625 L 0.113281 -1.890625 L 0.113281 -1.699219 L 0.527344 -1.699219 L 0.527344 -0.65625 C 0.527344 -0.226562 0.742188 0 1.144531 0 Z M 1.144531 0 "/></g></g></g><g fill="#ffffff" fill-opacity="1"><g transform="translate(58.766999, 28.737891)"><g><path d="M 0.96875 0.0273438 C 1.308594 0.0273438 1.585938 -0.0976562 1.75 -0.324219 L 1.769531 0 L 1.945312 0 L 1.945312 -1.230469 C 1.945312 -1.652344 1.621094 -1.941406 1.148438 -1.941406 C 0.746094 -1.941406 0.441406 -1.71875 0.351562 -1.367188 L 0.566406 -1.367188 C 0.644531 -1.597656 0.867188 -1.742188 1.152344 -1.742188 C 1.503906 -1.742188 1.734375 -1.535156 1.734375 -1.21875 L 1.734375 -1.082031 L 0.898438 -1.082031 C 0.511719 -1.082031 0.257812 -0.871094 0.257812 -0.535156 C 0.257812 -0.1875 0.53125 0.0273438 0.96875 0.0273438 Z M 0.46875 -0.539062 C 0.46875 -0.753906 0.648438 -0.898438 0.90625 -0.898438 L 1.738281 -0.898438 L 1.738281 -0.816406 C 1.738281 -0.4375 1.417969 -0.160156 0.976562 -0.160156 C 0.664062 -0.160156 0.46875 -0.308594 0.46875 -0.539062 Z M 0.46875 -0.539062 "/></g></g></g><g fill="#ffffff" fill-opacity="1"><g transform="translate(61.720694, 28.737891)"><g><path d="M 0.378906 0 L 0.589844 0 L 0.589844 -2.707031 L 0.378906 -2.707031 Z M 0.378906 0 "/></g></g></g><g fill="#ffffff" fill-opacity="1"><g transform="translate(63.356758, 28.737891)"><g/></g></g><g fill="#ffffff" fill-opacity="1"><g transform="translate(65.007457, 28.737891)"><g><path d="M 0.414062 0 L 1.425781 0 C 1.925781 0 2.234375 -0.265625 2.234375 -0.699219 C 2.234375 -1.011719 2.0625 -1.234375 1.769531 -1.320312 C 2.015625 -1.410156 2.164062 -1.617188 2.164062 -1.894531 C 2.164062 -2.300781 1.859375 -2.5625 1.386719 -2.5625 L 0.414062 -2.5625 Z M 0.636719 -0.207031 L 0.636719 -1.203125 L 1.410156 -1.203125 C 1.789062 -1.203125 2.007812 -1.019531 2.007812 -0.707031 C 2.007812 -0.394531 1.789062 -0.207031 1.421875 -0.207031 Z M 0.636719 -1.410156 L 0.636719 -2.351562 L 1.382812 -2.351562 C 1.730469 -2.351562 1.9375 -2.175781 1.9375 -1.882812 C 1.9375 -1.585938 1.730469 -1.410156 1.378906 -1.410156 Z M 0.636719 -1.410156 "/></g></g></g><g fill="#ffffff" fill-opacity="1"><g transform="translate(68.151478, 28.737891)"><g><path d="M 0.378906 0 L 0.589844 0 L 0.589844 -0.871094 C 0.589844 -1.445312 0.859375 -1.695312 1.265625 -1.695312 L 1.429688 -1.695312 L 1.429688 -1.890625 L 1.273438 -1.890625 C 0.921875 -1.890625 0.707031 -1.753906 0.578125 -1.46875 L 0.554688 -1.890625 L 0.378906 -1.890625 Z M 0.378906 0 "/></g></g></g><g fill="#ffffff" fill-opacity="1"><g transform="translate(70.409755, 28.737891)"><g><path d="M 0.378906 0 L 0.589844 0 L 0.589844 -1.890625 L 0.378906 -1.890625 Z M 0.289062 -2.429688 C 0.289062 -2.320312 0.367188 -2.234375 0.484375 -2.234375 C 0.601562 -2.234375 0.675781 -2.320312 0.675781 -2.429688 C 0.675781 -2.535156 0.601562 -2.621094 0.484375 -2.621094 C 0.367188 -2.621094 0.289062 -2.535156 0.289062 -2.429688 Z M 0.289062 -2.429688 "/></g></g></g><g fill="#ffffff" fill-opacity="1"><g transform="translate(72.045817, 28.737891)"><g><path d="M 0.378906 0 L 0.589844 0 L 0.589844 -2.707031 L 0.378906 -2.707031 Z M 0.378906 0 "/></g></g></g><g fill="#ffffff" fill-opacity="1"><g transform="translate(73.681879, 28.737891)"><g><path d="M 0.378906 0 L 0.589844 0 L 0.589844 -2.707031 L 0.378906 -2.707031 Z M 0.378906 0 "/></g></g></g><g fill="#ffffff" fill-opacity="1"><g transform="translate(75.31794, 28.737891)"><g><path d="M 0.378906 0 L 0.589844 0 L 0.589844 -1.890625 L 0.378906 -1.890625 Z M 0.289062 -2.429688 C 0.289062 -2.320312 0.367188 -2.234375 0.484375 -2.234375 C 0.601562 -2.234375 0.675781 -2.320312 0.675781 -2.429688 C 0.675781 -2.535156 0.601562 -2.621094 0.484375 -2.621094 C 0.367188 -2.621094 0.289062 -2.535156 0.289062 -2.429688 Z M 0.289062 -2.429688 "/></g></g></g><g fill="#ffffff" fill-opacity="1"><g transform="translate(76.954002, 28.737891)"><g><path d="M 0.96875 0.0273438 C 1.308594 0.0273438 1.585938 -0.0976562 1.75 -0.324219 L 1.769531 0 L 1.945312 0 L 1.945312 -1.230469 C 1.945312 -1.652344 1.621094 -1.941406 1.148438 -1.941406 C 0.746094 -1.941406 0.441406 -1.71875 0.351562 -1.367188 L 0.566406 -1.367188 C 0.644531 -1.597656 0.867188 -1.742188 1.152344 -1.742188 C 1.503906 -1.742188 1.734375 -1.535156 1.734375 -1.21875 L 1.734375 -1.082031 L 0.898438 -1.082031 C 0.511719 -1.082031 0.257812 -0.871094 0.257812 -0.535156 C 0.257812 -0.1875 0.53125 0.0273438 0.96875 0.0273438 Z M 0.46875 -0.539062 C 0.46875 -0.753906 0.648438 -0.898438 0.90625 -0.898438 L 1.738281 -0.898438 L 1.738281 -0.816406 C 1.738281 -0.4375 1.417969 -0.160156 0.976562 -0.160156 C 0.664062 -0.160156 0.46875 -0.308594 0.46875 -0.539062 Z M 0.46875 -0.539062 "/></g></g></g><g fill="#ffffff" fill-opacity="1"><g transform="translate(79.907697, 28.737891)"><g><path d="M 0.378906 0 L 0.589844 0 L 0.589844 -0.980469 C 0.589844 -1.429688 0.867188 -1.734375 1.265625 -1.734375 C 1.644531 -1.734375 1.878906 -1.464844 1.878906 -1.027344 L 1.878906 0 L 2.089844 0 L 2.089844 -1.046875 C 2.089844 -1.59375 1.785156 -1.941406 1.292969 -1.941406 C 0.988281 -1.941406 0.726562 -1.796875 0.574219 -1.527344 L 0.554688 -1.890625 L 0.378906 -1.890625 Z M 0.378906 0 "/></g></g></g><g fill="#ffffff" fill-opacity="1"><g transform="translate(83.004136, 28.737891)"><g><path d="M 1.179688 0.046875 C 1.644531 0.046875 2 -0.21875 2.125 -0.664062 L 1.902344 -0.664062 C 1.796875 -0.351562 1.527344 -0.15625 1.179688 -0.15625 C 0.730469 -0.15625 0.425781 -0.480469 0.425781 -0.949219 C 0.425781 -1.414062 0.730469 -1.734375 1.179688 -1.734375 C 1.503906 -1.734375 1.769531 -1.5625 1.890625 -1.261719 L 2.109375 -1.261719 C 2 -1.671875 1.628906 -1.941406 1.179688 -1.941406 C 0.609375 -1.941406 0.210938 -1.53125 0.210938 -0.949219 C 0.210938 -0.367188 0.609375 0.046875 1.179688 0.046875 Z M 1.179688 0.046875 "/></g></g></g><g fill="#ffffff" fill-opacity="1"><g transform="translate(86.001751, 28.737891)"><g><path d="M 1.179688 0.046875 C 1.601562 0.046875 1.945312 -0.175781 2.09375 -0.539062 L 1.855469 -0.542969 C 1.730469 -0.296875 1.484375 -0.152344 1.179688 -0.152344 C 0.757812 -0.152344 0.464844 -0.433594 0.429688 -0.859375 L 2.148438 -0.859375 C 2.164062 -1.5 1.777344 -1.941406 1.183594 -1.941406 C 0.609375 -1.941406 0.210938 -1.535156 0.210938 -0.949219 C 0.210938 -0.359375 0.605469 0.046875 1.179688 0.046875 Z M 0.429688 -1.046875 C 0.464844 -1.464844 0.761719 -1.738281 1.183594 -1.738281 C 1.597656 -1.738281 1.886719 -1.476562 1.941406 -1.046875 Z M 0.429688 -1.046875 "/></g></g></g></svg>